<svg xmlns:mydata="http://www.w3.org/2000/svg" mydata:contrastcolor="C1A7E2"
    mydata:template="Contrast" mydata:presentation="2.5" mydata:layouttype="undefined"
    mydata:specialfontid="undefined" mydata:id1="934" mydata:id2="518"
    mydata:companyname="Tudo Certo" mydata:companytagline="xat.com/TudoCerto" version="1.1"
    xmlns="http://www.w3.org/2000/svg" xmlns:xlink="http://www.w3.org/1999/xlink"
    viewBox="0 0 550 470">
    <defs style="animation-play-state: running;">
        <filter id="electric-filter" x="-50%" y="-50%" width="200%" height="200%"
            style="animation-play-state: running;">
            <feFlood flood-color="#ffffff" result="flood-white"
                style="animation-play-state: running;"></feFlood>
            <feFlood flood-color="#d10754" result="flood-accent"
                style="animation-play-state: running;"></feFlood>
            <feComposite operator="out" in="flood-accent" in2="SourceAlpha" result="comp"
                style="animation-play-state: running;"></feComposite>
            <feGaussianBlur in="comp" result="comp" stdDeviation="0.4"
                style="animation-play-state: running;"></feGaussianBlur>
            <feComposite operator="in" in="comp" in2="SourceAlpha" result="comp"
                style="animation-play-state: running;"></feComposite>
            <feComposite operator="in" in="flood-white" in2="SourceAlpha" result="comp2"
                style="animation-play-state: running;"></feComposite>
            <feGaussianBlur in="comp2" result="comp2" stdDeviation="0.4"
                style="animation-play-state: running;"></feGaussianBlur>
            <feBlend in="comp" in2="comp2" result="output" mode="screen"
                style="animation-play-state: running;"></feBlend>
        </filter>
        <filter id="electric-electric" x="-50%" y="-50%" width="200%" height="200%"
            style="animation-play-state: running;">
            <feTurbulence baseFrequency="0.08" type="fractalNoise" numOctaves="1" seed="1"
                result="noise" style="animation-play-state: running;"></feTurbulence>
            <feColorMatrix in="noise" result="noise" type="hueRotate" values="90"
                style="animation-play-state: running;">
                <animate attributeType="XML" attributeName="values" values="0;180;360" dur="3s"
                    repeatCount="indefinite" style="animation-play-state: running;"></animate>
            </feColorMatrix>
            <feDisplacementMap in="SourceGraphic" xChannelSelector="R" in2="noise" scale="13"
                result="lines" style="animation-play-state: running;"></feDisplacementMap>
            <feGaussianBlur in="lines" result="output" stdDeviation="10"
                style="animation-play-state: running;"></feGaussianBlur>
            <feBlend in="lines" in2="output" result="output" mode="screen"
                style="animation-play-state: running;"></feBlend>
        </filter>
    </defs>
    <g fill="#101820" fill-rule="nonzero" stroke="none" stroke-width="1" stroke-linecap="butt"
        stroke-linejoin="miter" stroke-miterlimit="10" stroke-dasharray="" stroke-dashoffset="0"
        font-family="none" font-weight="none" font-size="none" text-anchor="none"
        style="mix-blend-mode: normal; animation-play-state: running;">
        <g
            data-paper-data="{&quot;isGlobalGroup&quot;:true,&quot;bounds&quot;:{&quot;x&quot;:65,&quot;y&quot;:204.72660312072443,&quot;width&quot;:420,&quot;height&quot;:60.54679375855116}}"
            style="animation-play-state: running;">
            <g data-paper-data="{&quot;isSecondaryText&quot;:true}"
                style="animation-play-state: running;">
                <path
                    d="M86.43332,257.7004l2.92593,-5.47634h-2.26877l-1.79937,3.34839l-1.79937,-3.34839h-2.26877l2.94158,5.47634l-2.94158,5.47634h2.26877l1.79937,-3.34839l1.79937,3.34839h2.26877z"
                    data-paper-data="{&quot;glyphName&quot;:&quot;X&quot;,&quot;glyphIndex&quot;:0,&quot;firstGlyphOfWord&quot;:true,&quot;word&quot;:1}"
                    style="animation-play-state: running;"></path>
                <path
                    d="M110.43293,252.22406c-0.25035,0 -0.48505,0.09388 -0.65716,0.25035l-0.95445,0.81363c-0.18776,0.15647 -0.29729,0.37552 -0.32858,0.62587l-1.32997,9.26284h2.01842l0.37552,-2.55041h3.2858l0.35987,2.55041h2.01842l-0.42246,-3.03546l-0.89186,-6.22738c-0.03129,-0.25035 -0.15647,-0.4694 -0.34423,-0.62587l-0.9388,-0.81363c-0.18776,-0.15647 -0.42246,-0.25035 -0.65716,-0.25035zM110.80845,254.22684h0.78233l0.37552,0.32858l0.57893,4.06814h-2.70688l0.57893,-4.06814z"
                    data-paper-data="{&quot;glyphName&quot;:&quot;A&quot;,&quot;glyphIndex&quot;:1,&quot;word&quot;:1}"
                    style="animation-play-state: running;"></path>
                <path
                    d="M138.26253,254.22684v-2.00278h-7.11924v2.00278h2.55041v8.9499h2.00278v-8.9499z"
                    data-paper-data="{&quot;glyphName&quot;:&quot;T&quot;,&quot;glyphIndex&quot;:2,&quot;word&quot;:1}"
                    style="animation-play-state: running;"></path>
                <path
                    d="M151.53972,260.82974c-0.64151,0 -1.1735,0.51634 -1.1735,1.1735c0,0.64151 0.53199,1.1735 1.1735,1.1735c0.64151,0 1.1735,-0.53199 1.1735,-1.1735c0,-0.65716 -0.53199,-1.1735 -1.1735,-1.1735z"
                    data-paper-data="{&quot;glyphName&quot;:&quot;.&quot;,&quot;glyphIndex&quot;:3,&quot;word&quot;:1}"
                    style="animation-play-state: running;"></path>
                <path
                    d="M170.24183,252.22406c-0.26599,0 -0.51634,0.10953 -0.7041,0.29729l-0.95445,0.95445c-0.18776,0.18776 -0.29729,0.43811 -0.29729,0.7041v7.04101c0,0.26599 0.10953,0.51634 0.29729,0.7041l0.95445,0.95445c0.18776,0.18776 0.43811,0.29729 0.7041,0.29729h3.5205c0.26599,0 0.51634,-0.10953 0.7041,-0.29729l0.97009,-0.95445c0.18776,-0.18776 0.28164,-0.43811 0.28164,-0.7041v-1.97148h-2.00278v1.54902l-0.35987,0.37552h-2.69123l-0.37552,-0.37552v-6.19609l0.37552,-0.37552h2.69123l0.35987,0.37552v1.54902h2.00278v-1.97148c0,-0.26599 -0.09388,-0.51634 -0.28164,-0.7041l-0.97009,-0.95445c-0.18776,-0.18776 -0.43811,-0.29729 -0.7041,-0.29729z"
                    data-paper-data="{&quot;glyphName&quot;:&quot;C&quot;,&quot;glyphIndex&quot;:4,&quot;word&quot;:1}"
                    style="animation-play-state: running;"></path>
                <path
                    d="M196.27916,252.22406c-0.26599,0 -0.51634,0.10953 -0.7041,0.29729l-1.1735,1.1735c-0.18776,0.18776 -0.29729,0.43811 -0.29729,0.7041v6.6029c0,0.26599 0.10953,0.51634 0.29729,0.7041l1.1735,1.1735c0.18776,0.18776 0.43811,0.29729 0.7041,0.29729h3.0824c0.26599,0 0.53199,-0.10953 0.71975,-0.29729l1.1735,-1.1735c0.18776,-0.18776 0.28164,-0.43811 0.28164,-0.7041v-6.6029c0,-0.26599 -0.09388,-0.51634 -0.28164,-0.7041l-1.1735,-1.1735c-0.18776,-0.18776 -0.45375,-0.29729 -0.71975,-0.29729zM196.70162,254.22684h2.25312l0.57893,0.57893v5.77363l-0.57893,0.59457h-2.25312l-0.59457,-0.59457v-5.77363z"
                    data-paper-data="{&quot;glyphName&quot;:&quot;O&quot;,&quot;glyphIndex&quot;:5,&quot;word&quot;:1}"
                    style="animation-play-state: running;"></path>
                <path
                    d="M230.12596,252.271c-0.42246,-0.12517 -0.87621,0.03129 -1.12656,0.39117l-3.00416,4.50625l-3.00416,-4.50625c-0.2347,-0.35987 -0.7041,-0.51634 -1.12656,-0.39117c-0.42246,0.12517 -0.7041,0.51634 -0.7041,0.95445v9.95129h2.00278v-6.64984l2.00278,3.00416c0.18776,0.28164 0.50069,0.45375 0.82927,0.45375c0.34423,0 0.65716,-0.17211 0.82927,-0.45375l2.00278,-3.00416v6.64984h2.00278v-9.95129c0,-0.43811 -0.28164,-0.82927 -0.7041,-0.95445z"
                    data-paper-data="{&quot;glyphName&quot;:&quot;M&quot;,&quot;glyphIndex&quot;:6,&quot;word&quot;:1}"
                    style="animation-play-state: running;"></path>
                <path d="M254.6326,250.51857l-1.97148,-0.39117l-2.94158,14.75482l1.95584,0.39117z"
                    data-paper-data="{&quot;glyphName&quot;:&quot;/&quot;,&quot;glyphIndex&quot;:7,&quot;word&quot;:1}"
                    style="animation-play-state: running;"></path>
                <path
                    d="M278.24154,254.22684v-2.00278h-7.11924v2.00278h2.55041v8.9499h2.00278v-8.9499z"
                    data-paper-data="{&quot;glyphName&quot;:&quot;T&quot;,&quot;glyphIndex&quot;:8,&quot;word&quot;:1}"
                    style="animation-play-state: running;"></path>
                <path
                    d="M303.5571,252.22406h-2.00278v8.57438l-0.35987,0.37552h-2.69123l-0.37552,-0.37552v-8.57438h-2.00278v8.99684c0,0.26599 0.10953,0.51634 0.29729,0.7041l0.95445,0.95445c0.18776,0.18776 0.43811,0.29729 0.7041,0.29729h3.5205c0.26599,0 0.51634,-0.10953 0.7041,-0.29729l0.97009,-0.95445c0.18776,-0.18776 0.28164,-0.43811 0.28164,-0.7041z"
                    data-paper-data="{&quot;glyphName&quot;:&quot;U&quot;,&quot;glyphIndex&quot;:9,&quot;word&quot;:1}"
                    style="animation-play-state: running;"></path>
                <path
                    d="M322.60239,252.22406v10.95268h5.47634c0.26599,0 0.51634,-0.10953 0.7041,-0.29729l0.97009,-0.95445c0.18776,-0.18776 0.28164,-0.43811 0.28164,-0.7041v-7.04101c0,-0.26599 -0.09388,-0.51634 -0.28164,-0.7041l-0.97009,-0.95445c-0.18776,-0.18776 -0.43811,-0.29729 -0.7041,-0.29729zM324.60517,254.22684h3.06675l0.35987,0.37552v6.19609l-0.35987,0.37552h-3.06675z"
                    data-paper-data="{&quot;glyphName&quot;:&quot;D&quot;,&quot;glyphIndex&quot;:10,&quot;word&quot;:1}"
                    style="animation-play-state: running;"></path>
                <path
                    d="M350.59556,252.22406c-0.26599,0 -0.51634,0.10953 -0.7041,0.29729l-1.1735,1.1735c-0.18776,0.18776 -0.29729,0.43811 -0.29729,0.7041v6.6029c0,0.26599 0.10953,0.51634 0.29729,0.7041l1.1735,1.1735c0.18776,0.18776 0.43811,0.29729 0.7041,0.29729h3.0824c0.26599,0 0.53199,-0.10953 0.71975,-0.29729l1.1735,-1.1735c0.18776,-0.18776 0.28164,-0.43811 0.28164,-0.7041v-6.6029c0,-0.26599 -0.09388,-0.51634 -0.28164,-0.7041l-1.1735,-1.1735c-0.18776,-0.18776 -0.45375,-0.29729 -0.71975,-0.29729zM351.01802,254.22684h2.25312l0.57893,0.57893v5.77363l-0.57893,0.59457h-2.25312l-0.59457,-0.59457v-5.77363z"
                    data-paper-data="{&quot;glyphName&quot;:&quot;O&quot;,&quot;glyphIndex&quot;:11,&quot;word&quot;:1}"
                    style="animation-play-state: running;"></path>
                <path
                    d="M376.19478,252.22406c-0.26599,0 -0.51634,0.10953 -0.7041,0.29729l-0.95445,0.95445c-0.18776,0.18776 -0.29729,0.43811 -0.29729,0.7041v7.04101c0,0.26599 0.10953,0.51634 0.29729,0.7041l0.95445,0.95445c0.18776,0.18776 0.43811,0.29729 0.7041,0.29729h3.5205c0.26599,0 0.51634,-0.10953 0.7041,-0.29729l0.97009,-0.95445c0.18776,-0.18776 0.28164,-0.43811 0.28164,-0.7041v-1.97148h-2.00278v1.54902l-0.35987,0.37552h-2.69123l-0.37552,-0.37552v-6.19609l0.37552,-0.37552h2.69123l0.35987,0.37552v1.54902h2.00278v-1.97148c0,-0.26599 -0.09388,-0.51634 -0.28164,-0.7041l-0.97009,-0.95445c-0.18776,-0.18776 -0.43811,-0.29729 -0.7041,-0.29729z"
                    data-paper-data="{&quot;glyphName&quot;:&quot;C&quot;,&quot;glyphIndex&quot;:12,&quot;word&quot;:1}"
                    style="animation-play-state: running;"></path>
                <path
                    d="M406.00691,254.22684v-2.00278h-6.47773v10.95268h6.47773v-2.00278h-4.47495v-2.47218h4.47495v-2.00278h-4.47495v-2.47218z"
                    data-paper-data="{&quot;glyphName&quot;:&quot;E&quot;,&quot;glyphIndex&quot;:13,&quot;word&quot;:1}"
                    style="animation-play-state: running;"></path>
                <path
                    d="M424.52416,252.22406v10.95268h2.00278v-3.83344h1.95584l0.37552,0.28164l1.01703,3.5518h2.08101l-1.18915,-4.19331l0.90751,-0.89186c0.18776,-0.18776 0.28164,-0.43811 0.28164,-0.7041v-3.20757c0,-0.26599 -0.09388,-0.51634 -0.28164,-0.7041l-0.97009,-0.95445c-0.18776,-0.18776 -0.43811,-0.29729 -0.7041,-0.29729zM426.52694,254.22684h3.06675l0.35987,0.37552v2.36265l-0.35987,0.37552h-3.06675z"
                    data-paper-data="{&quot;glyphName&quot;:&quot;R&quot;,&quot;glyphIndex&quot;:14,&quot;word&quot;:1}"
                    style="animation-play-state: running;"></path>
                <path
                    d="M455.97017,254.22684v-2.00278h-7.11924v2.00278h2.55041v8.9499h2.00278v-8.9499z"
                    data-paper-data="{&quot;glyphName&quot;:&quot;T&quot;,&quot;glyphIndex&quot;:15,&quot;word&quot;:1}"
                    style="animation-play-state: running;"></path>
                <path
                    d="M475.69885,252.22406c-0.26599,0 -0.51634,0.10953 -0.7041,0.29729l-1.1735,1.1735c-0.18776,0.18776 -0.29729,0.43811 -0.29729,0.7041v6.6029c0,0.26599 0.10953,0.51634 0.29729,0.7041l1.1735,1.1735c0.18776,0.18776 0.43811,0.29729 0.7041,0.29729h3.0824c0.26599,0 0.53199,-0.10953 0.71975,-0.29729l1.1735,-1.1735c0.18776,-0.18776 0.28164,-0.43811 0.28164,-0.7041v-6.6029c0,-0.26599 -0.09388,-0.51634 -0.28164,-0.7041l-1.1735,-1.1735c-0.18776,-0.18776 -0.45375,-0.29729 -0.71975,-0.29729zM476.12131,254.22684h2.25312l0.57893,0.57893v5.77363l-0.57893,0.59457h-2.25312l-0.59457,-0.59457v-5.77363z"
                    data-paper-data="{&quot;glyphName&quot;:&quot;O&quot;,&quot;glyphIndex&quot;:16,&quot;lastGlyphOfWord&quot;:true,&quot;word&quot;:1}"
                    style="animation-play-state: running;"></path>
            </g>
            <g data-paper-data="{&quot;isPrimaryText&quot;:true}"
                style="animation-play-state: running;">
                <path
                    d="M66.79743,204.86487c-1.06002,0 -1.79743,0.73741 -1.79743,1.79743v3.4566c0,0.41479 0.09218,0.92176 0.50697,1.33655c0.41479,0.3687 0.92176,0.46088 1.29046,0.46088h14.42555v23.41271c0,0.3687 0.09218,0.87567 0.50697,1.29046c0.3687,0.41479 0.87567,0.50697 1.29046,0.50697h3.96357c0.41479,0 0.92176,-0.09218 1.29046,-0.50697c0.41479,-0.41479 0.50697,-0.92176 0.50697,-1.29046v-23.41271h14.37946c1.06002,0 1.84352,-0.69132 1.84352,-1.79743v-3.4566c0,-0.41479 -0.18435,-0.87567 -0.50697,-1.29046c-0.41479,-0.3687 -0.92176,-0.50697 -1.33655,-0.50697z"
                    data-paper-data="{&quot;glyphName&quot;:&quot;t&quot;,&quot;glyphIndex&quot;:0,&quot;firstGlyphOfWord&quot;:true,&quot;word&quot;:1}"
                    style="animation-play-state: running;"></path>
                <path
                    d="M110.02798,204.86487c-1.06002,0 -1.79743,0.73741 -1.79743,1.79743v21.56919c0,5.761 2.90354,8.89499 8.8489,8.89499h23.09009c5.89926,0 8.8489,-2.94963 8.8489,-8.89499v-21.56919c0,-0.3687 -0.09218,-0.87567 -0.46088,-1.29046c-0.41479,-0.41479 -0.92176,-0.50697 -1.33655,-0.50697h-4.05574c-1.06002,0 -1.79743,0.73741 -1.79743,1.79743v21.15439c0,1.79743 -0.50697,2.25831 -2.3044,2.25831h-20.83178c-1.79743,0 -2.35049,-0.46088 -2.35049,-2.25831v-21.15439c0,-0.3687 -0.09218,-0.87567 -0.50697,-1.29046c-0.3687,-0.41479 -0.87567,-0.50697 -1.29046,-0.50697z"
                    data-paper-data="{&quot;glyphName&quot;:&quot;u&quot;,&quot;glyphIndex&quot;:1,&quot;word&quot;:1}"
                    style="animation-play-state: running;"></path>
                <path
                    d="M154.549,211.73198c0,0.13826 0.04609,0.18435 0.18435,0.18435h31.38593c1.10611,0 1.61308,0.18435 1.84352,0.50697c0.23044,0.23044 0.46088,0.69132 0.46088,1.79743v13.59596c0,1.79743 -0.50697,2.25831 -2.3044,2.25831h-31.38593c-0.13826,0 -0.18435,0.04609 -0.18435,0.18435v5.06968c0,1.06002 0.73741,1.79743 1.79743,1.79743h30.83288c5.89926,0 8.8489,-2.94963 8.8489,-8.89499v-14.47163c0,-5.94535 -2.94963,-8.89499 -8.8489,-8.89499h-30.83288c-0.3687,0 -0.69132,0.09218 -1.01394,0.32262l-0.3687,0.32262c-0.13826,0.13826 -0.23044,0.32262 -0.27653,0.46088c-0.04609,0.04609 -0.04609,0.09218 -0.04609,0.18435c-0.04609,0.32262 -0.09218,0.46088 -0.09218,0.50697z"
                    data-paper-data="{&quot;glyphName&quot;:&quot;d&quot;,&quot;glyphIndex&quot;:2,&quot;word&quot;:1}"
                    style="animation-play-state: running;"></path>
                <path
                    d="M201.55876,228.41584c0,5.94535 3.31834,8.89499 9.07934,8.89499h22.6753c5.761,0 9.03325,-3.13398 9.03325,-8.89499v-14.79425c0,-5.94535 -3.27225,-8.89499 -9.03325,-8.89499h-22.6753c-5.94535,0 -9.07934,2.94963 -9.07934,8.89499zM209.20937,214.03638c0,-0.87567 0.18435,-1.47482 0.50697,-1.70526c0.32262,-0.32262 0.92176,-0.55306 2.07396,-0.55306h20.3709c1.79743,0 2.53484,0.41479 2.53484,2.25831v13.91858c0,1.06002 -0.23044,1.42873 -0.46088,1.75134c-0.32262,0.32262 -0.92176,0.55306 -2.07396,0.55306h-20.3709c-1.1522,0 -1.75134,-0.27653 -2.07396,-0.59914c-0.32262,-0.23044 -0.50697,-0.82958 -0.50697,-1.70526z"
                    data-paper-data="{&quot;glyphName&quot;:&quot;o&quot;,&quot;glyphIndex&quot;:3,&quot;lastGlyphOfWord&quot;:true,&quot;word&quot;:1}"
                    style="animation-play-state: running;"></path>
                <path
                    d="M279.49358,204.7266c-5.94535,0 -9.07934,2.94963 -9.07934,8.89499v14.79425c0,5.94535 3.31834,8.89499 9.07934,8.89499h22.90574c4.79315,0 7.97323,-2.07396 8.71063,-6.86711c0,-0.13826 -0.09218,-0.18435 -0.23044,-0.18435h-30.23373c-1.1522,0 -1.75134,-0.27653 -2.07396,-0.59914c-0.32262,-0.23044 -0.50697,-0.82958 -0.50697,-1.70526v-13.91858c0,-0.87567 0.18435,-1.47482 0.50697,-1.70526c0.32262,-0.32262 0.92176,-0.55306 2.07396,-0.55306h30.23373c0.23044,0 0.27653,-0.09218 0.18435,-0.23044c-0.73741,-4.79315 -3.87139,-6.82102 -8.66455,-6.82102z"
                    data-paper-data="{&quot;glyphName&quot;:&quot;c&quot;,&quot;glyphIndex&quot;:4,&quot;firstGlyphOfWord&quot;:true,&quot;word&quot;:2}"
                    style="animation-play-state: running;"></path>
                <path
                    d="M316.73269,235.37513c0,0.3687 0.13826,0.87567 0.50697,1.24438c0.04609,0.13826 0.13826,0.13826 0.18435,0.18435c0.32262,0.23044 0.69132,0.32262 1.10611,0.32262h33.59816c0.3687,0 0.82958,-0.04609 1.19829,-0.3687l0.13826,-0.13826c0.3687,-0.41479 0.46088,-0.92176 0.46088,-1.29046v-3.4566c0,-0.27653 0,-0.46088 -0.04609,-0.50697c-0.13826,-0.87567 -0.96785,-1.29046 -1.75134,-1.29046h-33.64424c-0.59914,0 -0.92176,0.18435 -1.33655,0.59914c-0.23044,0.32262 -0.3687,0.69132 -0.3687,1.10611c-0.04609,0.04609 -0.04609,0.23044 -0.04609,0.55306zM316.77878,206.52404c0,0.18435 -0.04609,0.3687 -0.04609,0.55306v3.0879c0,0.3687 0.09218,0.87567 0.50697,1.29046c0.13826,0.04609 0.09218,0.09218 0.23044,0.13826c0.32262,0.32262 0.73741,0.32262 1.06002,0.32262h33.4138c0.3687,0 0.87567,-0.09218 1.29046,-0.46088c0.41479,-0.41479 0.50697,-0.92176 0.50697,-1.33655v-3.4566c0,-0.04609 -0.04609,-0.18435 -0.09218,-0.50697c-0.13826,-0.59914 -0.3687,-0.7835 -0.87567,-1.10611c-0.23044,-0.13826 -0.50697,-0.18435 -0.82958,-0.18435h-33.18336c-0.3687,-0.04609 -0.92176,0.04609 -1.33655,0.41479l-0.23044,0.18435c-0.32262,0.32262 -0.3687,0.73741 -0.41479,1.06002zM316.73269,223.02354c0.04609,0.41479 0.23044,0.73741 0.50697,0.96785c0.04609,0.13826 0.13826,0.13826 0.18435,0.18435c0.3687,0.32262 0.7835,0.32262 1.10611,0.32262h0.55306h32.39987c1.10611,0 1.79743,-0.69132 1.79743,-1.79743v-3.41051c0,-0.27653 0,-0.46088 -0.04609,-0.50697c-0.04609,-0.32262 -0.32262,-0.82958 -0.64523,-0.96785c-0.32262,-0.32262 -0.73741,-0.32262 -1.06002,-0.32262h-32.6764c-0.41479,-0.04609 -0.96785,0 -1.38264,0.3687l-0.23044,0.18435c-0.27653,0.32262 -0.41479,0.69132 -0.41479,1.01394l-0.09218,0.55306z"
                    data-paper-data="{&quot;glyphName&quot;:&quot;e&quot;,&quot;glyphIndex&quot;:5,&quot;word&quot;:2}"
                    style="animation-play-state: running;"></path>
                <path
                    d="M361.2537,204.86487c-1.06002,0 -1.79743,0.73741 -1.79743,1.79743v5.06968c0,0.13826 0.04609,0.18435 0.18435,0.18435h28.0676c1.1522,0 1.65917,0.18435 1.88961,0.50697c0.23044,0.23044 0.46088,0.69132 0.46088,1.79743v5.43838c0,1.84352 -0.50697,2.3044 -2.35049,2.3044h-16.68386c-0.18435,0 -0.27653,0.18435 -0.13826,0.32262c2.71919,2.58093 10.0011,9.63239 15.30122,14.79425c0,0.04609 0.04609,0.04609 0.13826,0.04609h10.46198c0.13826,0 0.27653,-0.18435 0.13826,-0.32262c-1.61308,-1.61308 -5.99144,-5.761 -7.92714,-7.60452c-0.13826,-0.13826 -0.04609,-0.32262 0.13826,-0.32262c5.761,-0.59914 8.61846,-2.71919 8.61846,-8.71063v-6.40623c0,-5.761 -3.13398,-8.89499 -8.89499,-8.89499z"
                    data-paper-data="{&quot;glyphName&quot;:&quot;r&quot;,&quot;glyphIndex&quot;:6,&quot;word&quot;:2}"
                    style="animation-play-state: running;"></path>
                <path
                    d="M402.779,204.86487c-1.06002,0 -1.79743,0.73741 -1.79743,1.79743v3.4566c0,0.41479 0.09218,0.92176 0.50697,1.33655c0.41479,0.3687 0.92176,0.46088 1.29046,0.46088h14.42555v23.41271c0,0.3687 0.09218,0.87567 0.50697,1.29046c0.3687,0.41479 0.87567,0.50697 1.29046,0.50697h3.96357c0.41479,0 0.92176,-0.09218 1.29046,-0.50697c0.41479,-0.41479 0.50697,-0.92176 0.50697,-1.29046v-23.41271h14.37946c1.06002,0 1.84352,-0.69132 1.84352,-1.79743v-3.4566c0,-0.41479 -0.18435,-0.87567 -0.50697,-1.29046c-0.41479,-0.3687 -0.92176,-0.50697 -1.33655,-0.50697z"
                    data-paper-data="{&quot;glyphName&quot;:&quot;t&quot;,&quot;glyphIndex&quot;:7,&quot;word&quot;:2}"
                    style="animation-play-state: running;"></path>
                <path
                    d="M444.21211,228.41584c0,5.94535 3.31834,8.89499 9.07934,8.89499h22.6753c5.761,0 9.03325,-3.13398 9.03325,-8.89499v-14.79425c0,-5.94535 -3.27225,-8.89499 -9.03325,-8.89499h-22.6753c-5.94535,0 -9.07934,2.94963 -9.07934,8.89499zM451.86272,214.03638c0,-0.87567 0.18435,-1.47482 0.50697,-1.70526c0.32262,-0.32262 0.92176,-0.55306 2.07396,-0.55306h20.3709c1.79743,0 2.53484,0.41479 2.53484,2.25831v13.91858c0,1.06002 -0.23044,1.42873 -0.46088,1.75134c-0.32262,0.32262 -0.92176,0.55306 -2.07396,0.55306h-20.3709c-1.1522,0 -1.75134,-0.27653 -2.07396,-0.59914c-0.32262,-0.23044 -0.50697,-0.82958 -0.50697,-1.70526z"
                    data-paper-data="{&quot;glyphName&quot;:&quot;o&quot;,&quot;glyphIndex&quot;:8,&quot;lastGlyphOfWord&quot;:true,&quot;word&quot;:2}"
                    style="animation-play-state: running;"></path>
            </g>
        </g>
    </g>
    <g fill-rule="nonzero" font-family="none" font-weight="none" font-size="none" text-anchor="none"
        style="mix-blend-mode: normal; animation-play-state: running;"
        filter="url(#electric-electric)" fill="none" stroke="#d10754" stroke-width="2.5">
        <g
            data-paper-data="{&quot;isGlobalGroup&quot;:true,&quot;bounds&quot;:{&quot;x&quot;:65,&quot;y&quot;:204.72660312072443,&quot;width&quot;:420,&quot;height&quot;:60.54679375855116}}"
            style="animation-play-state: running;">
            <g data-paper-data="{&quot;isSecondaryText&quot;:true}"
                style="animation-play-state: running;">
                <path
                    d="M86.43332,257.7004l2.92593,-5.47634h-2.26877l-1.79937,3.34839l-1.79937,-3.34839h-2.26877l2.94158,5.47634l-2.94158,5.47634h2.26877l1.79937,-3.34839l1.79937,3.34839h2.26877z"
                    data-paper-data="{&quot;glyphName&quot;:&quot;X&quot;,&quot;glyphIndex&quot;:0,&quot;firstGlyphOfWord&quot;:true,&quot;word&quot;:1}"
                    style="animation-play-state: running;"></path>
                <path
                    d="M110.43293,252.22406c-0.25035,0 -0.48505,0.09388 -0.65716,0.25035l-0.95445,0.81363c-0.18776,0.15647 -0.29729,0.37552 -0.32858,0.62587l-1.32997,9.26284h2.01842l0.37552,-2.55041h3.2858l0.35987,2.55041h2.01842l-0.42246,-3.03546l-0.89186,-6.22738c-0.03129,-0.25035 -0.15647,-0.4694 -0.34423,-0.62587l-0.9388,-0.81363c-0.18776,-0.15647 -0.42246,-0.25035 -0.65716,-0.25035zM110.80845,254.22684h0.78233l0.37552,0.32858l0.57893,4.06814h-2.70688l0.57893,-4.06814z"
                    data-paper-data="{&quot;glyphName&quot;:&quot;A&quot;,&quot;glyphIndex&quot;:1,&quot;word&quot;:1}"
                    style="animation-play-state: running;"></path>
                <path
                    d="M138.26253,254.22684v-2.00278h-7.11924v2.00278h2.55041v8.9499h2.00278v-8.9499z"
                    data-paper-data="{&quot;glyphName&quot;:&quot;T&quot;,&quot;glyphIndex&quot;:2,&quot;word&quot;:1}"
                    style="animation-play-state: running;"></path>
                <path
                    d="M151.53972,260.82974c-0.64151,0 -1.1735,0.51634 -1.1735,1.1735c0,0.64151 0.53199,1.1735 1.1735,1.1735c0.64151,0 1.1735,-0.53199 1.1735,-1.1735c0,-0.65716 -0.53199,-1.1735 -1.1735,-1.1735z"
                    data-paper-data="{&quot;glyphName&quot;:&quot;.&quot;,&quot;glyphIndex&quot;:3,&quot;word&quot;:1}"
                    style="animation-play-state: running;"></path>
                <path
                    d="M170.24183,252.22406c-0.26599,0 -0.51634,0.10953 -0.7041,0.29729l-0.95445,0.95445c-0.18776,0.18776 -0.29729,0.43811 -0.29729,0.7041v7.04101c0,0.26599 0.10953,0.51634 0.29729,0.7041l0.95445,0.95445c0.18776,0.18776 0.43811,0.29729 0.7041,0.29729h3.5205c0.26599,0 0.51634,-0.10953 0.7041,-0.29729l0.97009,-0.95445c0.18776,-0.18776 0.28164,-0.43811 0.28164,-0.7041v-1.97148h-2.00278v1.54902l-0.35987,0.37552h-2.69123l-0.37552,-0.37552v-6.19609l0.37552,-0.37552h2.69123l0.35987,0.37552v1.54902h2.00278v-1.97148c0,-0.26599 -0.09388,-0.51634 -0.28164,-0.7041l-0.97009,-0.95445c-0.18776,-0.18776 -0.43811,-0.29729 -0.7041,-0.29729z"
                    data-paper-data="{&quot;glyphName&quot;:&quot;C&quot;,&quot;glyphIndex&quot;:4,&quot;word&quot;:1}"
                    style="animation-play-state: running;"></path>
                <path
                    d="M196.27916,252.22406c-0.26599,0 -0.51634,0.10953 -0.7041,0.29729l-1.1735,1.1735c-0.18776,0.18776 -0.29729,0.43811 -0.29729,0.7041v6.6029c0,0.26599 0.10953,0.51634 0.29729,0.7041l1.1735,1.1735c0.18776,0.18776 0.43811,0.29729 0.7041,0.29729h3.0824c0.26599,0 0.53199,-0.10953 0.71975,-0.29729l1.1735,-1.1735c0.18776,-0.18776 0.28164,-0.43811 0.28164,-0.7041v-6.6029c0,-0.26599 -0.09388,-0.51634 -0.28164,-0.7041l-1.1735,-1.1735c-0.18776,-0.18776 -0.45375,-0.29729 -0.71975,-0.29729zM196.70162,254.22684h2.25312l0.57893,0.57893v5.77363l-0.57893,0.59457h-2.25312l-0.59457,-0.59457v-5.77363z"
                    data-paper-data="{&quot;glyphName&quot;:&quot;O&quot;,&quot;glyphIndex&quot;:5,&quot;word&quot;:1}"
                    style="animation-play-state: running;"></path>
                <path
                    d="M230.12596,252.271c-0.42246,-0.12517 -0.87621,0.03129 -1.12656,0.39117l-3.00416,4.50625l-3.00416,-4.50625c-0.2347,-0.35987 -0.7041,-0.51634 -1.12656,-0.39117c-0.42246,0.12517 -0.7041,0.51634 -0.7041,0.95445v9.95129h2.00278v-6.64984l2.00278,3.00416c0.18776,0.28164 0.50069,0.45375 0.82927,0.45375c0.34423,0 0.65716,-0.17211 0.82927,-0.45375l2.00278,-3.00416v6.64984h2.00278v-9.95129c0,-0.43811 -0.28164,-0.82927 -0.7041,-0.95445z"
                    data-paper-data="{&quot;glyphName&quot;:&quot;M&quot;,&quot;glyphIndex&quot;:6,&quot;word&quot;:1}"
                    style="animation-play-state: running;"></path>
                <path d="M254.6326,250.51857l-1.97148,-0.39117l-2.94158,14.75482l1.95584,0.39117z"
                    data-paper-data="{&quot;glyphName&quot;:&quot;/&quot;,&quot;glyphIndex&quot;:7,&quot;word&quot;:1}"
                    style="animation-play-state: running;"></path>
                <path
                    d="M278.24154,254.22684v-2.00278h-7.11924v2.00278h2.55041v8.9499h2.00278v-8.9499z"
                    data-paper-data="{&quot;glyphName&quot;:&quot;T&quot;,&quot;glyphIndex&quot;:8,&quot;word&quot;:1}"
                    style="animation-play-state: running;"></path>
                <path
                    d="M303.5571,252.22406h-2.00278v8.57438l-0.35987,0.37552h-2.69123l-0.37552,-0.37552v-8.57438h-2.00278v8.99684c0,0.26599 0.10953,0.51634 0.29729,0.7041l0.95445,0.95445c0.18776,0.18776 0.43811,0.29729 0.7041,0.29729h3.5205c0.26599,0 0.51634,-0.10953 0.7041,-0.29729l0.97009,-0.95445c0.18776,-0.18776 0.28164,-0.43811 0.28164,-0.7041z"
                    data-paper-data="{&quot;glyphName&quot;:&quot;U&quot;,&quot;glyphIndex&quot;:9,&quot;word&quot;:1}"
                    style="animation-play-state: running;"></path>
                <path
                    d="M322.60239,252.22406v10.95268h5.47634c0.26599,0 0.51634,-0.10953 0.7041,-0.29729l0.97009,-0.95445c0.18776,-0.18776 0.28164,-0.43811 0.28164,-0.7041v-7.04101c0,-0.26599 -0.09388,-0.51634 -0.28164,-0.7041l-0.97009,-0.95445c-0.18776,-0.18776 -0.43811,-0.29729 -0.7041,-0.29729zM324.60517,254.22684h3.06675l0.35987,0.37552v6.19609l-0.35987,0.37552h-3.06675z"
                    data-paper-data="{&quot;glyphName&quot;:&quot;D&quot;,&quot;glyphIndex&quot;:10,&quot;word&quot;:1}"
                    style="animation-play-state: running;"></path>
                <path
                    d="M350.59556,252.22406c-0.26599,0 -0.51634,0.10953 -0.7041,0.29729l-1.1735,1.1735c-0.18776,0.18776 -0.29729,0.43811 -0.29729,0.7041v6.6029c0,0.26599 0.10953,0.51634 0.29729,0.7041l1.1735,1.1735c0.18776,0.18776 0.43811,0.29729 0.7041,0.29729h3.0824c0.26599,0 0.53199,-0.10953 0.71975,-0.29729l1.1735,-1.1735c0.18776,-0.18776 0.28164,-0.43811 0.28164,-0.7041v-6.6029c0,-0.26599 -0.09388,-0.51634 -0.28164,-0.7041l-1.1735,-1.1735c-0.18776,-0.18776 -0.45375,-0.29729 -0.71975,-0.29729zM351.01802,254.22684h2.25312l0.57893,0.57893v5.77363l-0.57893,0.59457h-2.25312l-0.59457,-0.59457v-5.77363z"
                    data-paper-data="{&quot;glyphName&quot;:&quot;O&quot;,&quot;glyphIndex&quot;:11,&quot;word&quot;:1}"
                    style="animation-play-state: running;"></path>
                <path
                    d="M376.19478,252.22406c-0.26599,0 -0.51634,0.10953 -0.7041,0.29729l-0.95445,0.95445c-0.18776,0.18776 -0.29729,0.43811 -0.29729,0.7041v7.04101c0,0.26599 0.10953,0.51634 0.29729,0.7041l0.95445,0.95445c0.18776,0.18776 0.43811,0.29729 0.7041,0.29729h3.5205c0.26599,0 0.51634,-0.10953 0.7041,-0.29729l0.97009,-0.95445c0.18776,-0.18776 0.28164,-0.43811 0.28164,-0.7041v-1.97148h-2.00278v1.54902l-0.35987,0.37552h-2.69123l-0.37552,-0.37552v-6.19609l0.37552,-0.37552h2.69123l0.35987,0.37552v1.54902h2.00278v-1.97148c0,-0.26599 -0.09388,-0.51634 -0.28164,-0.7041l-0.97009,-0.95445c-0.18776,-0.18776 -0.43811,-0.29729 -0.7041,-0.29729z"
                    data-paper-data="{&quot;glyphName&quot;:&quot;C&quot;,&quot;glyphIndex&quot;:12,&quot;word&quot;:1}"
                    style="animation-play-state: running;"></path>
                <path
                    d="M406.00691,254.22684v-2.00278h-6.47773v10.95268h6.47773v-2.00278h-4.47495v-2.47218h4.47495v-2.00278h-4.47495v-2.47218z"
                    data-paper-data="{&quot;glyphName&quot;:&quot;E&quot;,&quot;glyphIndex&quot;:13,&quot;word&quot;:1}"
                    style="animation-play-state: running;"></path>
                <path
                    d="M424.52416,252.22406v10.95268h2.00278v-3.83344h1.95584l0.37552,0.28164l1.01703,3.5518h2.08101l-1.18915,-4.19331l0.90751,-0.89186c0.18776,-0.18776 0.28164,-0.43811 0.28164,-0.7041v-3.20757c0,-0.26599 -0.09388,-0.51634 -0.28164,-0.7041l-0.97009,-0.95445c-0.18776,-0.18776 -0.43811,-0.29729 -0.7041,-0.29729zM426.52694,254.22684h3.06675l0.35987,0.37552v2.36265l-0.35987,0.37552h-3.06675z"
                    data-paper-data="{&quot;glyphName&quot;:&quot;R&quot;,&quot;glyphIndex&quot;:14,&quot;word&quot;:1}"
                    style="animation-play-state: running;"></path>
                <path
                    d="M455.97017,254.22684v-2.00278h-7.11924v2.00278h2.55041v8.9499h2.00278v-8.9499z"
                    data-paper-data="{&quot;glyphName&quot;:&quot;T&quot;,&quot;glyphIndex&quot;:15,&quot;word&quot;:1}"
                    style="animation-play-state: running;"></path>
                <path
                    d="M475.69885,252.22406c-0.26599,0 -0.51634,0.10953 -0.7041,0.29729l-1.1735,1.1735c-0.18776,0.18776 -0.29729,0.43811 -0.29729,0.7041v6.6029c0,0.26599 0.10953,0.51634 0.29729,0.7041l1.1735,1.1735c0.18776,0.18776 0.43811,0.29729 0.7041,0.29729h3.0824c0.26599,0 0.53199,-0.10953 0.71975,-0.29729l1.1735,-1.1735c0.18776,-0.18776 0.28164,-0.43811 0.28164,-0.7041v-6.6029c0,-0.26599 -0.09388,-0.51634 -0.28164,-0.7041l-1.1735,-1.1735c-0.18776,-0.18776 -0.45375,-0.29729 -0.71975,-0.29729zM476.12131,254.22684h2.25312l0.57893,0.57893v5.77363l-0.57893,0.59457h-2.25312l-0.59457,-0.59457v-5.77363z"
                    data-paper-data="{&quot;glyphName&quot;:&quot;O&quot;,&quot;glyphIndex&quot;:16,&quot;lastGlyphOfWord&quot;:true,&quot;word&quot;:1}"
                    style="animation-play-state: running;"></path>
            </g>
            <g data-paper-data="{&quot;isPrimaryText&quot;:true}"
                style="animation-play-state: running;">
                <path
                    d="M66.79743,204.86487c-1.06002,0 -1.79743,0.73741 -1.79743,1.79743v3.4566c0,0.41479 0.09218,0.92176 0.50697,1.33655c0.41479,0.3687 0.92176,0.46088 1.29046,0.46088h14.42555v23.41271c0,0.3687 0.09218,0.87567 0.50697,1.29046c0.3687,0.41479 0.87567,0.50697 1.29046,0.50697h3.96357c0.41479,0 0.92176,-0.09218 1.29046,-0.50697c0.41479,-0.41479 0.50697,-0.92176 0.50697,-1.29046v-23.41271h14.37946c1.06002,0 1.84352,-0.69132 1.84352,-1.79743v-3.4566c0,-0.41479 -0.18435,-0.87567 -0.50697,-1.29046c-0.41479,-0.3687 -0.92176,-0.50697 -1.33655,-0.50697z"
                    data-paper-data="{&quot;glyphName&quot;:&quot;t&quot;,&quot;glyphIndex&quot;:0,&quot;firstGlyphOfWord&quot;:true,&quot;word&quot;:1}"
                    style="animation-play-state: running;"></path>
                <path
                    d="M110.02798,204.86487c-1.06002,0 -1.79743,0.73741 -1.79743,1.79743v21.56919c0,5.761 2.90354,8.89499 8.8489,8.89499h23.09009c5.89926,0 8.8489,-2.94963 8.8489,-8.89499v-21.56919c0,-0.3687 -0.09218,-0.87567 -0.46088,-1.29046c-0.41479,-0.41479 -0.92176,-0.50697 -1.33655,-0.50697h-4.05574c-1.06002,0 -1.79743,0.73741 -1.79743,1.79743v21.15439c0,1.79743 -0.50697,2.25831 -2.3044,2.25831h-20.83178c-1.79743,0 -2.35049,-0.46088 -2.35049,-2.25831v-21.15439c0,-0.3687 -0.09218,-0.87567 -0.50697,-1.29046c-0.3687,-0.41479 -0.87567,-0.50697 -1.29046,-0.50697z"
                    data-paper-data="{&quot;glyphName&quot;:&quot;u&quot;,&quot;glyphIndex&quot;:1,&quot;word&quot;:1}"
                    style="animation-play-state: running;"></path>
                <path
                    d="M154.549,211.73198c0,0.13826 0.04609,0.18435 0.18435,0.18435h31.38593c1.10611,0 1.61308,0.18435 1.84352,0.50697c0.23044,0.23044 0.46088,0.69132 0.46088,1.79743v13.59596c0,1.79743 -0.50697,2.25831 -2.3044,2.25831h-31.38593c-0.13826,0 -0.18435,0.04609 -0.18435,0.18435v5.06968c0,1.06002 0.73741,1.79743 1.79743,1.79743h30.83288c5.89926,0 8.8489,-2.94963 8.8489,-8.89499v-14.47163c0,-5.94535 -2.94963,-8.89499 -8.8489,-8.89499h-30.83288c-0.3687,0 -0.69132,0.09218 -1.01394,0.32262l-0.3687,0.32262c-0.13826,0.13826 -0.23044,0.32262 -0.27653,0.46088c-0.04609,0.04609 -0.04609,0.09218 -0.04609,0.18435c-0.04609,0.32262 -0.09218,0.46088 -0.09218,0.50697z"
                    data-paper-data="{&quot;glyphName&quot;:&quot;d&quot;,&quot;glyphIndex&quot;:2,&quot;word&quot;:1}"
                    style="animation-play-state: running;"></path>
                <path
                    d="M201.55876,228.41584c0,5.94535 3.31834,8.89499 9.07934,8.89499h22.6753c5.761,0 9.03325,-3.13398 9.03325,-8.89499v-14.79425c0,-5.94535 -3.27225,-8.89499 -9.03325,-8.89499h-22.6753c-5.94535,0 -9.07934,2.94963 -9.07934,8.89499zM209.20937,214.03638c0,-0.87567 0.18435,-1.47482 0.50697,-1.70526c0.32262,-0.32262 0.92176,-0.55306 2.07396,-0.55306h20.3709c1.79743,0 2.53484,0.41479 2.53484,2.25831v13.91858c0,1.06002 -0.23044,1.42873 -0.46088,1.75134c-0.32262,0.32262 -0.92176,0.55306 -2.07396,0.55306h-20.3709c-1.1522,0 -1.75134,-0.27653 -2.07396,-0.59914c-0.32262,-0.23044 -0.50697,-0.82958 -0.50697,-1.70526z"
                    data-paper-data="{&quot;glyphName&quot;:&quot;o&quot;,&quot;glyphIndex&quot;:3,&quot;lastGlyphOfWord&quot;:true,&quot;word&quot;:1}"
                    style="animation-play-state: running;"></path>
                <path
                    d="M279.49358,204.7266c-5.94535,0 -9.07934,2.94963 -9.07934,8.89499v14.79425c0,5.94535 3.31834,8.89499 9.07934,8.89499h22.90574c4.79315,0 7.97323,-2.07396 8.71063,-6.86711c0,-0.13826 -0.09218,-0.18435 -0.23044,-0.18435h-30.23373c-1.1522,0 -1.75134,-0.27653 -2.07396,-0.59914c-0.32262,-0.23044 -0.50697,-0.82958 -0.50697,-1.70526v-13.91858c0,-0.87567 0.18435,-1.47482 0.50697,-1.70526c0.32262,-0.32262 0.92176,-0.55306 2.07396,-0.55306h30.23373c0.23044,0 0.27653,-0.09218 0.18435,-0.23044c-0.73741,-4.79315 -3.87139,-6.82102 -8.66455,-6.82102z"
                    data-paper-data="{&quot;glyphName&quot;:&quot;c&quot;,&quot;glyphIndex&quot;:4,&quot;firstGlyphOfWord&quot;:true,&quot;word&quot;:2}"
                    style="animation-play-state: running;"></path>
                <path
                    d="M316.73269,235.37513c0,0.3687 0.13826,0.87567 0.50697,1.24438c0.04609,0.13826 0.13826,0.13826 0.18435,0.18435c0.32262,0.23044 0.69132,0.32262 1.10611,0.32262h33.59816c0.3687,0 0.82958,-0.04609 1.19829,-0.3687l0.13826,-0.13826c0.3687,-0.41479 0.46088,-0.92176 0.46088,-1.29046v-3.4566c0,-0.27653 0,-0.46088 -0.04609,-0.50697c-0.13826,-0.87567 -0.96785,-1.29046 -1.75134,-1.29046h-33.64424c-0.59914,0 -0.92176,0.18435 -1.33655,0.59914c-0.23044,0.32262 -0.3687,0.69132 -0.3687,1.10611c-0.04609,0.04609 -0.04609,0.23044 -0.04609,0.55306zM316.77878,206.52404c0,0.18435 -0.04609,0.3687 -0.04609,0.55306v3.0879c0,0.3687 0.09218,0.87567 0.50697,1.29046c0.13826,0.04609 0.09218,0.09218 0.23044,0.13826c0.32262,0.32262 0.73741,0.32262 1.06002,0.32262h33.4138c0.3687,0 0.87567,-0.09218 1.29046,-0.46088c0.41479,-0.41479 0.50697,-0.92176 0.50697,-1.33655v-3.4566c0,-0.04609 -0.04609,-0.18435 -0.09218,-0.50697c-0.13826,-0.59914 -0.3687,-0.7835 -0.87567,-1.10611c-0.23044,-0.13826 -0.50697,-0.18435 -0.82958,-0.18435h-33.18336c-0.3687,-0.04609 -0.92176,0.04609 -1.33655,0.41479l-0.23044,0.18435c-0.32262,0.32262 -0.3687,0.73741 -0.41479,1.06002zM316.73269,223.02354c0.04609,0.41479 0.23044,0.73741 0.50697,0.96785c0.04609,0.13826 0.13826,0.13826 0.18435,0.18435c0.3687,0.32262 0.7835,0.32262 1.10611,0.32262h0.55306h32.39987c1.10611,0 1.79743,-0.69132 1.79743,-1.79743v-3.41051c0,-0.27653 0,-0.46088 -0.04609,-0.50697c-0.04609,-0.32262 -0.32262,-0.82958 -0.64523,-0.96785c-0.32262,-0.32262 -0.73741,-0.32262 -1.06002,-0.32262h-32.6764c-0.41479,-0.04609 -0.96785,0 -1.38264,0.3687l-0.23044,0.18435c-0.27653,0.32262 -0.41479,0.69132 -0.41479,1.01394l-0.09218,0.55306z"
                    data-paper-data="{&quot;glyphName&quot;:&quot;e&quot;,&quot;glyphIndex&quot;:5,&quot;word&quot;:2}"
                    style="animation-play-state: running;"></path>
                <path
                    d="M361.2537,204.86487c-1.06002,0 -1.79743,0.73741 -1.79743,1.79743v5.06968c0,0.13826 0.04609,0.18435 0.18435,0.18435h28.0676c1.1522,0 1.65917,0.18435 1.88961,0.50697c0.23044,0.23044 0.46088,0.69132 0.46088,1.79743v5.43838c0,1.84352 -0.50697,2.3044 -2.35049,2.3044h-16.68386c-0.18435,0 -0.27653,0.18435 -0.13826,0.32262c2.71919,2.58093 10.0011,9.63239 15.30122,14.79425c0,0.04609 0.04609,0.04609 0.13826,0.04609h10.46198c0.13826,0 0.27653,-0.18435 0.13826,-0.32262c-1.61308,-1.61308 -5.99144,-5.761 -7.92714,-7.60452c-0.13826,-0.13826 -0.04609,-0.32262 0.13826,-0.32262c5.761,-0.59914 8.61846,-2.71919 8.61846,-8.71063v-6.40623c0,-5.761 -3.13398,-8.89499 -8.89499,-8.89499z"
                    data-paper-data="{&quot;glyphName&quot;:&quot;r&quot;,&quot;glyphIndex&quot;:6,&quot;word&quot;:2}"
                    style="animation-play-state: running;"></path>
                <path
                    d="M402.779,204.86487c-1.06002,0 -1.79743,0.73741 -1.79743,1.79743v3.4566c0,0.41479 0.09218,0.92176 0.50697,1.33655c0.41479,0.3687 0.92176,0.46088 1.29046,0.46088h14.42555v23.41271c0,0.3687 0.09218,0.87567 0.50697,1.29046c0.3687,0.41479 0.87567,0.50697 1.29046,0.50697h3.96357c0.41479,0 0.92176,-0.09218 1.29046,-0.50697c0.41479,-0.41479 0.50697,-0.92176 0.50697,-1.29046v-23.41271h14.37946c1.06002,0 1.84352,-0.69132 1.84352,-1.79743v-3.4566c0,-0.41479 -0.18435,-0.87567 -0.50697,-1.29046c-0.41479,-0.3687 -0.92176,-0.50697 -1.33655,-0.50697z"
                    data-paper-data="{&quot;glyphName&quot;:&quot;t&quot;,&quot;glyphIndex&quot;:7,&quot;word&quot;:2}"
                    style="animation-play-state: running;"></path>
                <path
                    d="M444.21211,228.41584c0,5.94535 3.31834,8.89499 9.07934,8.89499h22.6753c5.761,0 9.03325,-3.13398 9.03325,-8.89499v-14.79425c0,-5.94535 -3.27225,-8.89499 -9.03325,-8.89499h-22.6753c-5.94535,0 -9.07934,2.94963 -9.07934,8.89499zM451.86272,214.03638c0,-0.87567 0.18435,-1.47482 0.50697,-1.70526c0.32262,-0.32262 0.92176,-0.55306 2.07396,-0.55306h20.3709c1.79743,0 2.53484,0.41479 2.53484,2.25831v13.91858c0,1.06002 -0.23044,1.42873 -0.46088,1.75134c-0.32262,0.32262 -0.92176,0.55306 -2.07396,0.55306h-20.3709c-1.1522,0 -1.75134,-0.27653 -2.07396,-0.59914c-0.32262,-0.23044 -0.50697,-0.82958 -0.50697,-1.70526z"
                    data-paper-data="{&quot;glyphName&quot;:&quot;o&quot;,&quot;glyphIndex&quot;:8,&quot;lastGlyphOfWord&quot;:true,&quot;word&quot;:2}"
                    style="animation-play-state: running;"></path>
            </g>
        </g>
    </g>
    <g fill-rule="nonzero" font-family="none" font-weight="none" font-size="none" text-anchor="none"
        style="mix-blend-mode: normal; animation-play-state: running;"
        filter="url(#electric-electric)" fill="none" stroke="#ffffff" opacity="0.5">
        <g
            data-paper-data="{&quot;isGlobalGroup&quot;:true,&quot;bounds&quot;:{&quot;x&quot;:65,&quot;y&quot;:204.72660312072443,&quot;width&quot;:420,&quot;height&quot;:60.54679375855116}}"
            style="animation-play-state: running;">
            <g data-paper-data="{&quot;isSecondaryText&quot;:true}"
                style="animation-play-state: running;">
                <path
                    d="M86.43332,257.7004l2.92593,-5.47634h-2.26877l-1.79937,3.34839l-1.79937,-3.34839h-2.26877l2.94158,5.47634l-2.94158,5.47634h2.26877l1.79937,-3.34839l1.79937,3.34839h2.26877z"
                    data-paper-data="{&quot;glyphName&quot;:&quot;X&quot;,&quot;glyphIndex&quot;:0,&quot;firstGlyphOfWord&quot;:true,&quot;word&quot;:1}"
                    style="animation-play-state: running;"></path>
                <path
                    d="M110.43293,252.22406c-0.25035,0 -0.48505,0.09388 -0.65716,0.25035l-0.95445,0.81363c-0.18776,0.15647 -0.29729,0.37552 -0.32858,0.62587l-1.32997,9.26284h2.01842l0.37552,-2.55041h3.2858l0.35987,2.55041h2.01842l-0.42246,-3.03546l-0.89186,-6.22738c-0.03129,-0.25035 -0.15647,-0.4694 -0.34423,-0.62587l-0.9388,-0.81363c-0.18776,-0.15647 -0.42246,-0.25035 -0.65716,-0.25035zM110.80845,254.22684h0.78233l0.37552,0.32858l0.57893,4.06814h-2.70688l0.57893,-4.06814z"
                    data-paper-data="{&quot;glyphName&quot;:&quot;A&quot;,&quot;glyphIndex&quot;:1,&quot;word&quot;:1}"
                    style="animation-play-state: running;"></path>
                <path
                    d="M138.26253,254.22684v-2.00278h-7.11924v2.00278h2.55041v8.9499h2.00278v-8.9499z"
                    data-paper-data="{&quot;glyphName&quot;:&quot;T&quot;,&quot;glyphIndex&quot;:2,&quot;word&quot;:1}"
                    style="animation-play-state: running;"></path>
                <path
                    d="M151.53972,260.82974c-0.64151,0 -1.1735,0.51634 -1.1735,1.1735c0,0.64151 0.53199,1.1735 1.1735,1.1735c0.64151,0 1.1735,-0.53199 1.1735,-1.1735c0,-0.65716 -0.53199,-1.1735 -1.1735,-1.1735z"
                    data-paper-data="{&quot;glyphName&quot;:&quot;.&quot;,&quot;glyphIndex&quot;:3,&quot;word&quot;:1}"
                    style="animation-play-state: running;"></path>
                <path
                    d="M170.24183,252.22406c-0.26599,0 -0.51634,0.10953 -0.7041,0.29729l-0.95445,0.95445c-0.18776,0.18776 -0.29729,0.43811 -0.29729,0.7041v7.04101c0,0.26599 0.10953,0.51634 0.29729,0.7041l0.95445,0.95445c0.18776,0.18776 0.43811,0.29729 0.7041,0.29729h3.5205c0.26599,0 0.51634,-0.10953 0.7041,-0.29729l0.97009,-0.95445c0.18776,-0.18776 0.28164,-0.43811 0.28164,-0.7041v-1.97148h-2.00278v1.54902l-0.35987,0.37552h-2.69123l-0.37552,-0.37552v-6.19609l0.37552,-0.37552h2.69123l0.35987,0.37552v1.54902h2.00278v-1.97148c0,-0.26599 -0.09388,-0.51634 -0.28164,-0.7041l-0.97009,-0.95445c-0.18776,-0.18776 -0.43811,-0.29729 -0.7041,-0.29729z"
                    data-paper-data="{&quot;glyphName&quot;:&quot;C&quot;,&quot;glyphIndex&quot;:4,&quot;word&quot;:1}"
                    style="animation-play-state: running;"></path>
                <path
                    d="M196.27916,252.22406c-0.26599,0 -0.51634,0.10953 -0.7041,0.29729l-1.1735,1.1735c-0.18776,0.18776 -0.29729,0.43811 -0.29729,0.7041v6.6029c0,0.26599 0.10953,0.51634 0.29729,0.7041l1.1735,1.1735c0.18776,0.18776 0.43811,0.29729 0.7041,0.29729h3.0824c0.26599,0 0.53199,-0.10953 0.71975,-0.29729l1.1735,-1.1735c0.18776,-0.18776 0.28164,-0.43811 0.28164,-0.7041v-6.6029c0,-0.26599 -0.09388,-0.51634 -0.28164,-0.7041l-1.1735,-1.1735c-0.18776,-0.18776 -0.45375,-0.29729 -0.71975,-0.29729zM196.70162,254.22684h2.25312l0.57893,0.57893v5.77363l-0.57893,0.59457h-2.25312l-0.59457,-0.59457v-5.77363z"
                    data-paper-data="{&quot;glyphName&quot;:&quot;O&quot;,&quot;glyphIndex&quot;:5,&quot;word&quot;:1}"
                    style="animation-play-state: running;"></path>
                <path
                    d="M230.12596,252.271c-0.42246,-0.12517 -0.87621,0.03129 -1.12656,0.39117l-3.00416,4.50625l-3.00416,-4.50625c-0.2347,-0.35987 -0.7041,-0.51634 -1.12656,-0.39117c-0.42246,0.12517 -0.7041,0.51634 -0.7041,0.95445v9.95129h2.00278v-6.64984l2.00278,3.00416c0.18776,0.28164 0.50069,0.45375 0.82927,0.45375c0.34423,0 0.65716,-0.17211 0.82927,-0.45375l2.00278,-3.00416v6.64984h2.00278v-9.95129c0,-0.43811 -0.28164,-0.82927 -0.7041,-0.95445z"
                    data-paper-data="{&quot;glyphName&quot;:&quot;M&quot;,&quot;glyphIndex&quot;:6,&quot;word&quot;:1}"
                    style="animation-play-state: running;"></path>
                <path d="M254.6326,250.51857l-1.97148,-0.39117l-2.94158,14.75482l1.95584,0.39117z"
                    data-paper-data="{&quot;glyphName&quot;:&quot;/&quot;,&quot;glyphIndex&quot;:7,&quot;word&quot;:1}"
                    style="animation-play-state: running;"></path>
                <path
                    d="M278.24154,254.22684v-2.00278h-7.11924v2.00278h2.55041v8.9499h2.00278v-8.9499z"
                    data-paper-data="{&quot;glyphName&quot;:&quot;T&quot;,&quot;glyphIndex&quot;:8,&quot;word&quot;:1}"
                    style="animation-play-state: running;"></path>
                <path
                    d="M303.5571,252.22406h-2.00278v8.57438l-0.35987,0.37552h-2.69123l-0.37552,-0.37552v-8.57438h-2.00278v8.99684c0,0.26599 0.10953,0.51634 0.29729,0.7041l0.95445,0.95445c0.18776,0.18776 0.43811,0.29729 0.7041,0.29729h3.5205c0.26599,0 0.51634,-0.10953 0.7041,-0.29729l0.97009,-0.95445c0.18776,-0.18776 0.28164,-0.43811 0.28164,-0.7041z"
                    data-paper-data="{&quot;glyphName&quot;:&quot;U&quot;,&quot;glyphIndex&quot;:9,&quot;word&quot;:1}"
                    style="animation-play-state: running;"></path>
                <path
                    d="M322.60239,252.22406v10.95268h5.47634c0.26599,0 0.51634,-0.10953 0.7041,-0.29729l0.97009,-0.95445c0.18776,-0.18776 0.28164,-0.43811 0.28164,-0.7041v-7.04101c0,-0.26599 -0.09388,-0.51634 -0.28164,-0.7041l-0.97009,-0.95445c-0.18776,-0.18776 -0.43811,-0.29729 -0.7041,-0.29729zM324.60517,254.22684h3.06675l0.35987,0.37552v6.19609l-0.35987,0.37552h-3.06675z"
                    data-paper-data="{&quot;glyphName&quot;:&quot;D&quot;,&quot;glyphIndex&quot;:10,&quot;word&quot;:1}"
                    style="animation-play-state: running;"></path>
                <path
                    d="M350.59556,252.22406c-0.26599,0 -0.51634,0.10953 -0.7041,0.29729l-1.1735,1.1735c-0.18776,0.18776 -0.29729,0.43811 -0.29729,0.7041v6.6029c0,0.26599 0.10953,0.51634 0.29729,0.7041l1.1735,1.1735c0.18776,0.18776 0.43811,0.29729 0.7041,0.29729h3.0824c0.26599,0 0.53199,-0.10953 0.71975,-0.29729l1.1735,-1.1735c0.18776,-0.18776 0.28164,-0.43811 0.28164,-0.7041v-6.6029c0,-0.26599 -0.09388,-0.51634 -0.28164,-0.7041l-1.1735,-1.1735c-0.18776,-0.18776 -0.45375,-0.29729 -0.71975,-0.29729zM351.01802,254.22684h2.25312l0.57893,0.57893v5.77363l-0.57893,0.59457h-2.25312l-0.59457,-0.59457v-5.77363z"
                    data-paper-data="{&quot;glyphName&quot;:&quot;O&quot;,&quot;glyphIndex&quot;:11,&quot;word&quot;:1}"
                    style="animation-play-state: running;"></path>
                <path
                    d="M376.19478,252.22406c-0.26599,0 -0.51634,0.10953 -0.7041,0.29729l-0.95445,0.95445c-0.18776,0.18776 -0.29729,0.43811 -0.29729,0.7041v7.04101c0,0.26599 0.10953,0.51634 0.29729,0.7041l0.95445,0.95445c0.18776,0.18776 0.43811,0.29729 0.7041,0.29729h3.5205c0.26599,0 0.51634,-0.10953 0.7041,-0.29729l0.97009,-0.95445c0.18776,-0.18776 0.28164,-0.43811 0.28164,-0.7041v-1.97148h-2.00278v1.54902l-0.35987,0.37552h-2.69123l-0.37552,-0.37552v-6.19609l0.37552,-0.37552h2.69123l0.35987,0.37552v1.54902h2.00278v-1.97148c0,-0.26599 -0.09388,-0.51634 -0.28164,-0.7041l-0.97009,-0.95445c-0.18776,-0.18776 -0.43811,-0.29729 -0.7041,-0.29729z"
                    data-paper-data="{&quot;glyphName&quot;:&quot;C&quot;,&quot;glyphIndex&quot;:12,&quot;word&quot;:1}"
                    style="animation-play-state: running;"></path>
                <path
                    d="M406.00691,254.22684v-2.00278h-6.47773v10.95268h6.47773v-2.00278h-4.47495v-2.47218h4.47495v-2.00278h-4.47495v-2.47218z"
                    data-paper-data="{&quot;glyphName&quot;:&quot;E&quot;,&quot;glyphIndex&quot;:13,&quot;word&quot;:1}"
                    style="animation-play-state: running;"></path>
                <path
                    d="M424.52416,252.22406v10.95268h2.00278v-3.83344h1.95584l0.37552,0.28164l1.01703,3.5518h2.08101l-1.18915,-4.19331l0.90751,-0.89186c0.18776,-0.18776 0.28164,-0.43811 0.28164,-0.7041v-3.20757c0,-0.26599 -0.09388,-0.51634 -0.28164,-0.7041l-0.97009,-0.95445c-0.18776,-0.18776 -0.43811,-0.29729 -0.7041,-0.29729zM426.52694,254.22684h3.06675l0.35987,0.37552v2.36265l-0.35987,0.37552h-3.06675z"
                    data-paper-data="{&quot;glyphName&quot;:&quot;R&quot;,&quot;glyphIndex&quot;:14,&quot;word&quot;:1}"
                    style="animation-play-state: running;"></path>
                <path
                    d="M455.97017,254.22684v-2.00278h-7.11924v2.00278h2.55041v8.9499h2.00278v-8.9499z"
                    data-paper-data="{&quot;glyphName&quot;:&quot;T&quot;,&quot;glyphIndex&quot;:15,&quot;word&quot;:1}"
                    style="animation-play-state: running;"></path>
                <path
                    d="M475.69885,252.22406c-0.26599,0 -0.51634,0.10953 -0.7041,0.29729l-1.1735,1.1735c-0.18776,0.18776 -0.29729,0.43811 -0.29729,0.7041v6.6029c0,0.26599 0.10953,0.51634 0.29729,0.7041l1.1735,1.1735c0.18776,0.18776 0.43811,0.29729 0.7041,0.29729h3.0824c0.26599,0 0.53199,-0.10953 0.71975,-0.29729l1.1735,-1.1735c0.18776,-0.18776 0.28164,-0.43811 0.28164,-0.7041v-6.6029c0,-0.26599 -0.09388,-0.51634 -0.28164,-0.7041l-1.1735,-1.1735c-0.18776,-0.18776 -0.45375,-0.29729 -0.71975,-0.29729zM476.12131,254.22684h2.25312l0.57893,0.57893v5.77363l-0.57893,0.59457h-2.25312l-0.59457,-0.59457v-5.77363z"
                    data-paper-data="{&quot;glyphName&quot;:&quot;O&quot;,&quot;glyphIndex&quot;:16,&quot;lastGlyphOfWord&quot;:true,&quot;word&quot;:1}"
                    style="animation-play-state: running;"></path>
            </g>
            <g data-paper-data="{&quot;isPrimaryText&quot;:true}"
                style="animation-play-state: running;">
                <path
                    d="M66.79743,204.86487c-1.06002,0 -1.79743,0.73741 -1.79743,1.79743v3.4566c0,0.41479 0.09218,0.92176 0.50697,1.33655c0.41479,0.3687 0.92176,0.46088 1.29046,0.46088h14.42555v23.41271c0,0.3687 0.09218,0.87567 0.50697,1.29046c0.3687,0.41479 0.87567,0.50697 1.29046,0.50697h3.96357c0.41479,0 0.92176,-0.09218 1.29046,-0.50697c0.41479,-0.41479 0.50697,-0.92176 0.50697,-1.29046v-23.41271h14.37946c1.06002,0 1.84352,-0.69132 1.84352,-1.79743v-3.4566c0,-0.41479 -0.18435,-0.87567 -0.50697,-1.29046c-0.41479,-0.3687 -0.92176,-0.50697 -1.33655,-0.50697z"
                    data-paper-data="{&quot;glyphName&quot;:&quot;t&quot;,&quot;glyphIndex&quot;:0,&quot;firstGlyphOfWord&quot;:true,&quot;word&quot;:1}"
                    style="animation-play-state: running;"></path>
                <path
                    d="M110.02798,204.86487c-1.06002,0 -1.79743,0.73741 -1.79743,1.79743v21.56919c0,5.761 2.90354,8.89499 8.8489,8.89499h23.09009c5.89926,0 8.8489,-2.94963 8.8489,-8.89499v-21.56919c0,-0.3687 -0.09218,-0.87567 -0.46088,-1.29046c-0.41479,-0.41479 -0.92176,-0.50697 -1.33655,-0.50697h-4.05574c-1.06002,0 -1.79743,0.73741 -1.79743,1.79743v21.15439c0,1.79743 -0.50697,2.25831 -2.3044,2.25831h-20.83178c-1.79743,0 -2.35049,-0.46088 -2.35049,-2.25831v-21.15439c0,-0.3687 -0.09218,-0.87567 -0.50697,-1.29046c-0.3687,-0.41479 -0.87567,-0.50697 -1.29046,-0.50697z"
                    data-paper-data="{&quot;glyphName&quot;:&quot;u&quot;,&quot;glyphIndex&quot;:1,&quot;word&quot;:1}"
                    style="animation-play-state: running;"></path>
                <path
                    d="M154.549,211.73198c0,0.13826 0.04609,0.18435 0.18435,0.18435h31.38593c1.10611,0 1.61308,0.18435 1.84352,0.50697c0.23044,0.23044 0.46088,0.69132 0.46088,1.79743v13.59596c0,1.79743 -0.50697,2.25831 -2.3044,2.25831h-31.38593c-0.13826,0 -0.18435,0.04609 -0.18435,0.18435v5.06968c0,1.06002 0.73741,1.79743 1.79743,1.79743h30.83288c5.89926,0 8.8489,-2.94963 8.8489,-8.89499v-14.47163c0,-5.94535 -2.94963,-8.89499 -8.8489,-8.89499h-30.83288c-0.3687,0 -0.69132,0.09218 -1.01394,0.32262l-0.3687,0.32262c-0.13826,0.13826 -0.23044,0.32262 -0.27653,0.46088c-0.04609,0.04609 -0.04609,0.09218 -0.04609,0.18435c-0.04609,0.32262 -0.09218,0.46088 -0.09218,0.50697z"
                    data-paper-data="{&quot;glyphName&quot;:&quot;d&quot;,&quot;glyphIndex&quot;:2,&quot;word&quot;:1}"
                    style="animation-play-state: running;"></path>
                <path
                    d="M201.55876,228.41584c0,5.94535 3.31834,8.89499 9.07934,8.89499h22.6753c5.761,0 9.03325,-3.13398 9.03325,-8.89499v-14.79425c0,-5.94535 -3.27225,-8.89499 -9.03325,-8.89499h-22.6753c-5.94535,0 -9.07934,2.94963 -9.07934,8.89499zM209.20937,214.03638c0,-0.87567 0.18435,-1.47482 0.50697,-1.70526c0.32262,-0.32262 0.92176,-0.55306 2.07396,-0.55306h20.3709c1.79743,0 2.53484,0.41479 2.53484,2.25831v13.91858c0,1.06002 -0.23044,1.42873 -0.46088,1.75134c-0.32262,0.32262 -0.92176,0.55306 -2.07396,0.55306h-20.3709c-1.1522,0 -1.75134,-0.27653 -2.07396,-0.59914c-0.32262,-0.23044 -0.50697,-0.82958 -0.50697,-1.70526z"
                    data-paper-data="{&quot;glyphName&quot;:&quot;o&quot;,&quot;glyphIndex&quot;:3,&quot;lastGlyphOfWord&quot;:true,&quot;word&quot;:1}"
                    style="animation-play-state: running;"></path>
                <path
                    d="M279.49358,204.7266c-5.94535,0 -9.07934,2.94963 -9.07934,8.89499v14.79425c0,5.94535 3.31834,8.89499 9.07934,8.89499h22.90574c4.79315,0 7.97323,-2.07396 8.71063,-6.86711c0,-0.13826 -0.09218,-0.18435 -0.23044,-0.18435h-30.23373c-1.1522,0 -1.75134,-0.27653 -2.07396,-0.59914c-0.32262,-0.23044 -0.50697,-0.82958 -0.50697,-1.70526v-13.91858c0,-0.87567 0.18435,-1.47482 0.50697,-1.70526c0.32262,-0.32262 0.92176,-0.55306 2.07396,-0.55306h30.23373c0.23044,0 0.27653,-0.09218 0.18435,-0.23044c-0.73741,-4.79315 -3.87139,-6.82102 -8.66455,-6.82102z"
                    data-paper-data="{&quot;glyphName&quot;:&quot;c&quot;,&quot;glyphIndex&quot;:4,&quot;firstGlyphOfWord&quot;:true,&quot;word&quot;:2}"
                    style="animation-play-state: running;"></path>
                <path
                    d="M316.73269,235.37513c0,0.3687 0.13826,0.87567 0.50697,1.24438c0.04609,0.13826 0.13826,0.13826 0.18435,0.18435c0.32262,0.23044 0.69132,0.32262 1.10611,0.32262h33.59816c0.3687,0 0.82958,-0.04609 1.19829,-0.3687l0.13826,-0.13826c0.3687,-0.41479 0.46088,-0.92176 0.46088,-1.29046v-3.4566c0,-0.27653 0,-0.46088 -0.04609,-0.50697c-0.13826,-0.87567 -0.96785,-1.29046 -1.75134,-1.29046h-33.64424c-0.59914,0 -0.92176,0.18435 -1.33655,0.59914c-0.23044,0.32262 -0.3687,0.69132 -0.3687,1.10611c-0.04609,0.04609 -0.04609,0.23044 -0.04609,0.55306zM316.77878,206.52404c0,0.18435 -0.04609,0.3687 -0.04609,0.55306v3.0879c0,0.3687 0.09218,0.87567 0.50697,1.29046c0.13826,0.04609 0.09218,0.09218 0.23044,0.13826c0.32262,0.32262 0.73741,0.32262 1.06002,0.32262h33.4138c0.3687,0 0.87567,-0.09218 1.29046,-0.46088c0.41479,-0.41479 0.50697,-0.92176 0.50697,-1.33655v-3.4566c0,-0.04609 -0.04609,-0.18435 -0.09218,-0.50697c-0.13826,-0.59914 -0.3687,-0.7835 -0.87567,-1.10611c-0.23044,-0.13826 -0.50697,-0.18435 -0.82958,-0.18435h-33.18336c-0.3687,-0.04609 -0.92176,0.04609 -1.33655,0.41479l-0.23044,0.18435c-0.32262,0.32262 -0.3687,0.73741 -0.41479,1.06002zM316.73269,223.02354c0.04609,0.41479 0.23044,0.73741 0.50697,0.96785c0.04609,0.13826 0.13826,0.13826 0.18435,0.18435c0.3687,0.32262 0.7835,0.32262 1.10611,0.32262h0.55306h32.39987c1.10611,0 1.79743,-0.69132 1.79743,-1.79743v-3.41051c0,-0.27653 0,-0.46088 -0.04609,-0.50697c-0.04609,-0.32262 -0.32262,-0.82958 -0.64523,-0.96785c-0.32262,-0.32262 -0.73741,-0.32262 -1.06002,-0.32262h-32.6764c-0.41479,-0.04609 -0.96785,0 -1.38264,0.3687l-0.23044,0.18435c-0.27653,0.32262 -0.41479,0.69132 -0.41479,1.01394l-0.09218,0.55306z"
                    data-paper-data="{&quot;glyphName&quot;:&quot;e&quot;,&quot;glyphIndex&quot;:5,&quot;word&quot;:2}"
                    style="animation-play-state: running;"></path>
                <path
                    d="M361.2537,204.86487c-1.06002,0 -1.79743,0.73741 -1.79743,1.79743v5.06968c0,0.13826 0.04609,0.18435 0.18435,0.18435h28.0676c1.1522,0 1.65917,0.18435 1.88961,0.50697c0.23044,0.23044 0.46088,0.69132 0.46088,1.79743v5.43838c0,1.84352 -0.50697,2.3044 -2.35049,2.3044h-16.68386c-0.18435,0 -0.27653,0.18435 -0.13826,0.32262c2.71919,2.58093 10.0011,9.63239 15.30122,14.79425c0,0.04609 0.04609,0.04609 0.13826,0.04609h10.46198c0.13826,0 0.27653,-0.18435 0.13826,-0.32262c-1.61308,-1.61308 -5.99144,-5.761 -7.92714,-7.60452c-0.13826,-0.13826 -0.04609,-0.32262 0.13826,-0.32262c5.761,-0.59914 8.61846,-2.71919 8.61846,-8.71063v-6.40623c0,-5.761 -3.13398,-8.89499 -8.89499,-8.89499z"
                    data-paper-data="{&quot;glyphName&quot;:&quot;r&quot;,&quot;glyphIndex&quot;:6,&quot;word&quot;:2}"
                    style="animation-play-state: running;"></path>
                <path
                    d="M402.779,204.86487c-1.06002,0 -1.79743,0.73741 -1.79743,1.79743v3.4566c0,0.41479 0.09218,0.92176 0.50697,1.33655c0.41479,0.3687 0.92176,0.46088 1.29046,0.46088h14.42555v23.41271c0,0.3687 0.09218,0.87567 0.50697,1.29046c0.3687,0.41479 0.87567,0.50697 1.29046,0.50697h3.96357c0.41479,0 0.92176,-0.09218 1.29046,-0.50697c0.41479,-0.41479 0.50697,-0.92176 0.50697,-1.29046v-23.41271h14.37946c1.06002,0 1.84352,-0.69132 1.84352,-1.79743v-3.4566c0,-0.41479 -0.18435,-0.87567 -0.50697,-1.29046c-0.41479,-0.3687 -0.92176,-0.50697 -1.33655,-0.50697z"
                    data-paper-data="{&quot;glyphName&quot;:&quot;t&quot;,&quot;glyphIndex&quot;:7,&quot;word&quot;:2}"
                    style="animation-play-state: running;"></path>
                <path
                    d="M444.21211,228.41584c0,5.94535 3.31834,8.89499 9.07934,8.89499h22.6753c5.761,0 9.03325,-3.13398 9.03325,-8.89499v-14.79425c0,-5.94535 -3.27225,-8.89499 -9.03325,-8.89499h-22.6753c-5.94535,0 -9.07934,2.94963 -9.07934,8.89499zM451.86272,214.03638c0,-0.87567 0.18435,-1.47482 0.50697,-1.70526c0.32262,-0.32262 0.92176,-0.55306 2.07396,-0.55306h20.3709c1.79743,0 2.53484,0.41479 2.53484,2.25831v13.91858c0,1.06002 -0.23044,1.42873 -0.46088,1.75134c-0.32262,0.32262 -0.92176,0.55306 -2.07396,0.55306h-20.3709c-1.1522,0 -1.75134,-0.27653 -2.07396,-0.59914c-0.32262,-0.23044 -0.50697,-0.82958 -0.50697,-1.70526z"
                    data-paper-data="{&quot;glyphName&quot;:&quot;o&quot;,&quot;glyphIndex&quot;:8,&quot;lastGlyphOfWord&quot;:true,&quot;word&quot;:2}"
                    style="animation-play-state: running;"></path>
            </g>
        </g>
    </g>
    <g fill-rule="nonzero" font-family="none" font-weight="none" font-size="none" text-anchor="none"
        style="mix-blend-mode: normal; animation-play-state: running;"
        filter="url(#electric-filter)" fill="#ffffff" stroke="none">
        <g
            data-paper-data="{&quot;isGlobalGroup&quot;:true,&quot;bounds&quot;:{&quot;x&quot;:65,&quot;y&quot;:204.72660312072443,&quot;width&quot;:420,&quot;height&quot;:60.54679375855116}}"
            style="animation-play-state: running;">
            <g data-paper-data="{&quot;isSecondaryText&quot;:true}"
                style="animation-play-state: running;">
                <path
                    d="M86.43332,257.7004l2.92593,-5.47634h-2.26877l-1.79937,3.34839l-1.79937,-3.34839h-2.26877l2.94158,5.47634l-2.94158,5.47634h2.26877l1.79937,-3.34839l1.79937,3.34839h2.26877z"
                    data-paper-data="{&quot;glyphName&quot;:&quot;X&quot;,&quot;glyphIndex&quot;:0,&quot;firstGlyphOfWord&quot;:true,&quot;word&quot;:1}"
                    style="animation-play-state: running;"></path>
                <path
                    d="M110.43293,252.22406c-0.25035,0 -0.48505,0.09388 -0.65716,0.25035l-0.95445,0.81363c-0.18776,0.15647 -0.29729,0.37552 -0.32858,0.62587l-1.32997,9.26284h2.01842l0.37552,-2.55041h3.2858l0.35987,2.55041h2.01842l-0.42246,-3.03546l-0.89186,-6.22738c-0.03129,-0.25035 -0.15647,-0.4694 -0.34423,-0.62587l-0.9388,-0.81363c-0.18776,-0.15647 -0.42246,-0.25035 -0.65716,-0.25035zM110.80845,254.22684h0.78233l0.37552,0.32858l0.57893,4.06814h-2.70688l0.57893,-4.06814z"
                    data-paper-data="{&quot;glyphName&quot;:&quot;A&quot;,&quot;glyphIndex&quot;:1,&quot;word&quot;:1}"
                    style="animation-play-state: running;"></path>
                <path
                    d="M138.26253,254.22684v-2.00278h-7.11924v2.00278h2.55041v8.9499h2.00278v-8.9499z"
                    data-paper-data="{&quot;glyphName&quot;:&quot;T&quot;,&quot;glyphIndex&quot;:2,&quot;word&quot;:1}"
                    style="animation-play-state: running;"></path>
                <path
                    d="M151.53972,260.82974c-0.64151,0 -1.1735,0.51634 -1.1735,1.1735c0,0.64151 0.53199,1.1735 1.1735,1.1735c0.64151,0 1.1735,-0.53199 1.1735,-1.1735c0,-0.65716 -0.53199,-1.1735 -1.1735,-1.1735z"
                    data-paper-data="{&quot;glyphName&quot;:&quot;.&quot;,&quot;glyphIndex&quot;:3,&quot;word&quot;:1}"
                    style="animation-play-state: running;"></path>
                <path
                    d="M170.24183,252.22406c-0.26599,0 -0.51634,0.10953 -0.7041,0.29729l-0.95445,0.95445c-0.18776,0.18776 -0.29729,0.43811 -0.29729,0.7041v7.04101c0,0.26599 0.10953,0.51634 0.29729,0.7041l0.95445,0.95445c0.18776,0.18776 0.43811,0.29729 0.7041,0.29729h3.5205c0.26599,0 0.51634,-0.10953 0.7041,-0.29729l0.97009,-0.95445c0.18776,-0.18776 0.28164,-0.43811 0.28164,-0.7041v-1.97148h-2.00278v1.54902l-0.35987,0.37552h-2.69123l-0.37552,-0.37552v-6.19609l0.37552,-0.37552h2.69123l0.35987,0.37552v1.54902h2.00278v-1.97148c0,-0.26599 -0.09388,-0.51634 -0.28164,-0.7041l-0.97009,-0.95445c-0.18776,-0.18776 -0.43811,-0.29729 -0.7041,-0.29729z"
                    data-paper-data="{&quot;glyphName&quot;:&quot;C&quot;,&quot;glyphIndex&quot;:4,&quot;word&quot;:1}"
                    style="animation-play-state: running;"></path>
                <path
                    d="M196.27916,252.22406c-0.26599,0 -0.51634,0.10953 -0.7041,0.29729l-1.1735,1.1735c-0.18776,0.18776 -0.29729,0.43811 -0.29729,0.7041v6.6029c0,0.26599 0.10953,0.51634 0.29729,0.7041l1.1735,1.1735c0.18776,0.18776 0.43811,0.29729 0.7041,0.29729h3.0824c0.26599,0 0.53199,-0.10953 0.71975,-0.29729l1.1735,-1.1735c0.18776,-0.18776 0.28164,-0.43811 0.28164,-0.7041v-6.6029c0,-0.26599 -0.09388,-0.51634 -0.28164,-0.7041l-1.1735,-1.1735c-0.18776,-0.18776 -0.45375,-0.29729 -0.71975,-0.29729zM196.70162,254.22684h2.25312l0.57893,0.57893v5.77363l-0.57893,0.59457h-2.25312l-0.59457,-0.59457v-5.77363z"
                    data-paper-data="{&quot;glyphName&quot;:&quot;O&quot;,&quot;glyphIndex&quot;:5,&quot;word&quot;:1}"
                    style="animation-play-state: running;"></path>
                <path
                    d="M230.12596,252.271c-0.42246,-0.12517 -0.87621,0.03129 -1.12656,0.39117l-3.00416,4.50625l-3.00416,-4.50625c-0.2347,-0.35987 -0.7041,-0.51634 -1.12656,-0.39117c-0.42246,0.12517 -0.7041,0.51634 -0.7041,0.95445v9.95129h2.00278v-6.64984l2.00278,3.00416c0.18776,0.28164 0.50069,0.45375 0.82927,0.45375c0.34423,0 0.65716,-0.17211 0.82927,-0.45375l2.00278,-3.00416v6.64984h2.00278v-9.95129c0,-0.43811 -0.28164,-0.82927 -0.7041,-0.95445z"
                    data-paper-data="{&quot;glyphName&quot;:&quot;M&quot;,&quot;glyphIndex&quot;:6,&quot;word&quot;:1}"
                    style="animation-play-state: running;"></path>
                <path d="M254.6326,250.51857l-1.97148,-0.39117l-2.94158,14.75482l1.95584,0.39117z"
                    data-paper-data="{&quot;glyphName&quot;:&quot;/&quot;,&quot;glyphIndex&quot;:7,&quot;word&quot;:1}"
                    style="animation-play-state: running;"></path>
                <path
                    d="M278.24154,254.22684v-2.00278h-7.11924v2.00278h2.55041v8.9499h2.00278v-8.9499z"
                    data-paper-data="{&quot;glyphName&quot;:&quot;T&quot;,&quot;glyphIndex&quot;:8,&quot;word&quot;:1}"
                    style="animation-play-state: running;"></path>
                <path
                    d="M303.5571,252.22406h-2.00278v8.57438l-0.35987,0.37552h-2.69123l-0.37552,-0.37552v-8.57438h-2.00278v8.99684c0,0.26599 0.10953,0.51634 0.29729,0.7041l0.95445,0.95445c0.18776,0.18776 0.43811,0.29729 0.7041,0.29729h3.5205c0.26599,0 0.51634,-0.10953 0.7041,-0.29729l0.97009,-0.95445c0.18776,-0.18776 0.28164,-0.43811 0.28164,-0.7041z"
                    data-paper-data="{&quot;glyphName&quot;:&quot;U&quot;,&quot;glyphIndex&quot;:9,&quot;word&quot;:1}"
                    style="animation-play-state: running;"></path>
                <path
                    d="M322.60239,252.22406v10.95268h5.47634c0.26599,0 0.51634,-0.10953 0.7041,-0.29729l0.97009,-0.95445c0.18776,-0.18776 0.28164,-0.43811 0.28164,-0.7041v-7.04101c0,-0.26599 -0.09388,-0.51634 -0.28164,-0.7041l-0.97009,-0.95445c-0.18776,-0.18776 -0.43811,-0.29729 -0.7041,-0.29729zM324.60517,254.22684h3.06675l0.35987,0.37552v6.19609l-0.35987,0.37552h-3.06675z"
                    data-paper-data="{&quot;glyphName&quot;:&quot;D&quot;,&quot;glyphIndex&quot;:10,&quot;word&quot;:1}"
                    style="animation-play-state: running;"></path>
                <path
                    d="M350.59556,252.22406c-0.26599,0 -0.51634,0.10953 -0.7041,0.29729l-1.1735,1.1735c-0.18776,0.18776 -0.29729,0.43811 -0.29729,0.7041v6.6029c0,0.26599 0.10953,0.51634 0.29729,0.7041l1.1735,1.1735c0.18776,0.18776 0.43811,0.29729 0.7041,0.29729h3.0824c0.26599,0 0.53199,-0.10953 0.71975,-0.29729l1.1735,-1.1735c0.18776,-0.18776 0.28164,-0.43811 0.28164,-0.7041v-6.6029c0,-0.26599 -0.09388,-0.51634 -0.28164,-0.7041l-1.1735,-1.1735c-0.18776,-0.18776 -0.45375,-0.29729 -0.71975,-0.29729zM351.01802,254.22684h2.25312l0.57893,0.57893v5.77363l-0.57893,0.59457h-2.25312l-0.59457,-0.59457v-5.77363z"
                    data-paper-data="{&quot;glyphName&quot;:&quot;O&quot;,&quot;glyphIndex&quot;:11,&quot;word&quot;:1}"
                    style="animation-play-state: running;"></path>
                <path
                    d="M376.19478,252.22406c-0.26599,0 -0.51634,0.10953 -0.7041,0.29729l-0.95445,0.95445c-0.18776,0.18776 -0.29729,0.43811 -0.29729,0.7041v7.04101c0,0.26599 0.10953,0.51634 0.29729,0.7041l0.95445,0.95445c0.18776,0.18776 0.43811,0.29729 0.7041,0.29729h3.5205c0.26599,0 0.51634,-0.10953 0.7041,-0.29729l0.97009,-0.95445c0.18776,-0.18776 0.28164,-0.43811 0.28164,-0.7041v-1.97148h-2.00278v1.54902l-0.35987,0.37552h-2.69123l-0.37552,-0.37552v-6.19609l0.37552,-0.37552h2.69123l0.35987,0.37552v1.54902h2.00278v-1.97148c0,-0.26599 -0.09388,-0.51634 -0.28164,-0.7041l-0.97009,-0.95445c-0.18776,-0.18776 -0.43811,-0.29729 -0.7041,-0.29729z"
                    data-paper-data="{&quot;glyphName&quot;:&quot;C&quot;,&quot;glyphIndex&quot;:12,&quot;word&quot;:1}"
                    style="animation-play-state: running;"></path>
                <path
                    d="M406.00691,254.22684v-2.00278h-6.47773v10.95268h6.47773v-2.00278h-4.47495v-2.47218h4.47495v-2.00278h-4.47495v-2.47218z"
                    data-paper-data="{&quot;glyphName&quot;:&quot;E&quot;,&quot;glyphIndex&quot;:13,&quot;word&quot;:1}"
                    style="animation-play-state: running;"></path>
                <path
                    d="M424.52416,252.22406v10.95268h2.00278v-3.83344h1.95584l0.37552,0.28164l1.01703,3.5518h2.08101l-1.18915,-4.19331l0.90751,-0.89186c0.18776,-0.18776 0.28164,-0.43811 0.28164,-0.7041v-3.20757c0,-0.26599 -0.09388,-0.51634 -0.28164,-0.7041l-0.97009,-0.95445c-0.18776,-0.18776 -0.43811,-0.29729 -0.7041,-0.29729zM426.52694,254.22684h3.06675l0.35987,0.37552v2.36265l-0.35987,0.37552h-3.06675z"
                    data-paper-data="{&quot;glyphName&quot;:&quot;R&quot;,&quot;glyphIndex&quot;:14,&quot;word&quot;:1}"
                    style="animation-play-state: running;"></path>
                <path
                    d="M455.97017,254.22684v-2.00278h-7.11924v2.00278h2.55041v8.9499h2.00278v-8.9499z"
                    data-paper-data="{&quot;glyphName&quot;:&quot;T&quot;,&quot;glyphIndex&quot;:15,&quot;word&quot;:1}"
                    style="animation-play-state: running;"></path>
                <path
                    d="M475.69885,252.22406c-0.26599,0 -0.51634,0.10953 -0.7041,0.29729l-1.1735,1.1735c-0.18776,0.18776 -0.29729,0.43811 -0.29729,0.7041v6.6029c0,0.26599 0.10953,0.51634 0.29729,0.7041l1.1735,1.1735c0.18776,0.18776 0.43811,0.29729 0.7041,0.29729h3.0824c0.26599,0 0.53199,-0.10953 0.71975,-0.29729l1.1735,-1.1735c0.18776,-0.18776 0.28164,-0.43811 0.28164,-0.7041v-6.6029c0,-0.26599 -0.09388,-0.51634 -0.28164,-0.7041l-1.1735,-1.1735c-0.18776,-0.18776 -0.45375,-0.29729 -0.71975,-0.29729zM476.12131,254.22684h2.25312l0.57893,0.57893v5.77363l-0.57893,0.59457h-2.25312l-0.59457,-0.59457v-5.77363z"
                    data-paper-data="{&quot;glyphName&quot;:&quot;O&quot;,&quot;glyphIndex&quot;:16,&quot;lastGlyphOfWord&quot;:true,&quot;word&quot;:1}"
                    style="animation-play-state: running;"></path>
            </g>
            <g data-paper-data="{&quot;isPrimaryText&quot;:true}"
                style="animation-play-state: running;">
                <path
                    d="M66.79743,204.86487c-1.06002,0 -1.79743,0.73741 -1.79743,1.79743v3.4566c0,0.41479 0.09218,0.92176 0.50697,1.33655c0.41479,0.3687 0.92176,0.46088 1.29046,0.46088h14.42555v23.41271c0,0.3687 0.09218,0.87567 0.50697,1.29046c0.3687,0.41479 0.87567,0.50697 1.29046,0.50697h3.96357c0.41479,0 0.92176,-0.09218 1.29046,-0.50697c0.41479,-0.41479 0.50697,-0.92176 0.50697,-1.29046v-23.41271h14.37946c1.06002,0 1.84352,-0.69132 1.84352,-1.79743v-3.4566c0,-0.41479 -0.18435,-0.87567 -0.50697,-1.29046c-0.41479,-0.3687 -0.92176,-0.50697 -1.33655,-0.50697z"
                    data-paper-data="{&quot;glyphName&quot;:&quot;t&quot;,&quot;glyphIndex&quot;:0,&quot;firstGlyphOfWord&quot;:true,&quot;word&quot;:1}"
                    style="animation-play-state: running;"></path>
                <path
                    d="M110.02798,204.86487c-1.06002,0 -1.79743,0.73741 -1.79743,1.79743v21.56919c0,5.761 2.90354,8.89499 8.8489,8.89499h23.09009c5.89926,0 8.8489,-2.94963 8.8489,-8.89499v-21.56919c0,-0.3687 -0.09218,-0.87567 -0.46088,-1.29046c-0.41479,-0.41479 -0.92176,-0.50697 -1.33655,-0.50697h-4.05574c-1.06002,0 -1.79743,0.73741 -1.79743,1.79743v21.15439c0,1.79743 -0.50697,2.25831 -2.3044,2.25831h-20.83178c-1.79743,0 -2.35049,-0.46088 -2.35049,-2.25831v-21.15439c0,-0.3687 -0.09218,-0.87567 -0.50697,-1.29046c-0.3687,-0.41479 -0.87567,-0.50697 -1.29046,-0.50697z"
                    data-paper-data="{&quot;glyphName&quot;:&quot;u&quot;,&quot;glyphIndex&quot;:1,&quot;word&quot;:1}"
                    style="animation-play-state: running;"></path>
                <path
                    d="M154.549,211.73198c0,0.13826 0.04609,0.18435 0.18435,0.18435h31.38593c1.10611,0 1.61308,0.18435 1.84352,0.50697c0.23044,0.23044 0.46088,0.69132 0.46088,1.79743v13.59596c0,1.79743 -0.50697,2.25831 -2.3044,2.25831h-31.38593c-0.13826,0 -0.18435,0.04609 -0.18435,0.18435v5.06968c0,1.06002 0.73741,1.79743 1.79743,1.79743h30.83288c5.89926,0 8.8489,-2.94963 8.8489,-8.89499v-14.47163c0,-5.94535 -2.94963,-8.89499 -8.8489,-8.89499h-30.83288c-0.3687,0 -0.69132,0.09218 -1.01394,0.32262l-0.3687,0.32262c-0.13826,0.13826 -0.23044,0.32262 -0.27653,0.46088c-0.04609,0.04609 -0.04609,0.09218 -0.04609,0.18435c-0.04609,0.32262 -0.09218,0.46088 -0.09218,0.50697z"
                    data-paper-data="{&quot;glyphName&quot;:&quot;d&quot;,&quot;glyphIndex&quot;:2,&quot;word&quot;:1}"
                    style="animation-play-state: running;"></path>
                <path
                    d="M201.55876,228.41584c0,5.94535 3.31834,8.89499 9.07934,8.89499h22.6753c5.761,0 9.03325,-3.13398 9.03325,-8.89499v-14.79425c0,-5.94535 -3.27225,-8.89499 -9.03325,-8.89499h-22.6753c-5.94535,0 -9.07934,2.94963 -9.07934,8.89499zM209.20937,214.03638c0,-0.87567 0.18435,-1.47482 0.50697,-1.70526c0.32262,-0.32262 0.92176,-0.55306 2.07396,-0.55306h20.3709c1.79743,0 2.53484,0.41479 2.53484,2.25831v13.91858c0,1.06002 -0.23044,1.42873 -0.46088,1.75134c-0.32262,0.32262 -0.92176,0.55306 -2.07396,0.55306h-20.3709c-1.1522,0 -1.75134,-0.27653 -2.07396,-0.59914c-0.32262,-0.23044 -0.50697,-0.82958 -0.50697,-1.70526z"
                    data-paper-data="{&quot;glyphName&quot;:&quot;o&quot;,&quot;glyphIndex&quot;:3,&quot;lastGlyphOfWord&quot;:true,&quot;word&quot;:1}"
                    style="animation-play-state: running;"></path>
                <path
                    d="M279.49358,204.7266c-5.94535,0 -9.07934,2.94963 -9.07934,8.89499v14.79425c0,5.94535 3.31834,8.89499 9.07934,8.89499h22.90574c4.79315,0 7.97323,-2.07396 8.71063,-6.86711c0,-0.13826 -0.09218,-0.18435 -0.23044,-0.18435h-30.23373c-1.1522,0 -1.75134,-0.27653 -2.07396,-0.59914c-0.32262,-0.23044 -0.50697,-0.82958 -0.50697,-1.70526v-13.91858c0,-0.87567 0.18435,-1.47482 0.50697,-1.70526c0.32262,-0.32262 0.92176,-0.55306 2.07396,-0.55306h30.23373c0.23044,0 0.27653,-0.09218 0.18435,-0.23044c-0.73741,-4.79315 -3.87139,-6.82102 -8.66455,-6.82102z"
                    data-paper-data="{&quot;glyphName&quot;:&quot;c&quot;,&quot;glyphIndex&quot;:4,&quot;firstGlyphOfWord&quot;:true,&quot;word&quot;:2}"
                    style="animation-play-state: running;"></path>
                <path
                    d="M316.73269,235.37513c0,0.3687 0.13826,0.87567 0.50697,1.24438c0.04609,0.13826 0.13826,0.13826 0.18435,0.18435c0.32262,0.23044 0.69132,0.32262 1.10611,0.32262h33.59816c0.3687,0 0.82958,-0.04609 1.19829,-0.3687l0.13826,-0.13826c0.3687,-0.41479 0.46088,-0.92176 0.46088,-1.29046v-3.4566c0,-0.27653 0,-0.46088 -0.04609,-0.50697c-0.13826,-0.87567 -0.96785,-1.29046 -1.75134,-1.29046h-33.64424c-0.59914,0 -0.92176,0.18435 -1.33655,0.59914c-0.23044,0.32262 -0.3687,0.69132 -0.3687,1.10611c-0.04609,0.04609 -0.04609,0.23044 -0.04609,0.55306zM316.77878,206.52404c0,0.18435 -0.04609,0.3687 -0.04609,0.55306v3.0879c0,0.3687 0.09218,0.87567 0.50697,1.29046c0.13826,0.04609 0.09218,0.09218 0.23044,0.13826c0.32262,0.32262 0.73741,0.32262 1.06002,0.32262h33.4138c0.3687,0 0.87567,-0.09218 1.29046,-0.46088c0.41479,-0.41479 0.50697,-0.92176 0.50697,-1.33655v-3.4566c0,-0.04609 -0.04609,-0.18435 -0.09218,-0.50697c-0.13826,-0.59914 -0.3687,-0.7835 -0.87567,-1.10611c-0.23044,-0.13826 -0.50697,-0.18435 -0.82958,-0.18435h-33.18336c-0.3687,-0.04609 -0.92176,0.04609 -1.33655,0.41479l-0.23044,0.18435c-0.32262,0.32262 -0.3687,0.73741 -0.41479,1.06002zM316.73269,223.02354c0.04609,0.41479 0.23044,0.73741 0.50697,0.96785c0.04609,0.13826 0.13826,0.13826 0.18435,0.18435c0.3687,0.32262 0.7835,0.32262 1.10611,0.32262h0.55306h32.39987c1.10611,0 1.79743,-0.69132 1.79743,-1.79743v-3.41051c0,-0.27653 0,-0.46088 -0.04609,-0.50697c-0.04609,-0.32262 -0.32262,-0.82958 -0.64523,-0.96785c-0.32262,-0.32262 -0.73741,-0.32262 -1.06002,-0.32262h-32.6764c-0.41479,-0.04609 -0.96785,0 -1.38264,0.3687l-0.23044,0.18435c-0.27653,0.32262 -0.41479,0.69132 -0.41479,1.01394l-0.09218,0.55306z"
                    data-paper-data="{&quot;glyphName&quot;:&quot;e&quot;,&quot;glyphIndex&quot;:5,&quot;word&quot;:2}"
                    style="animation-play-state: running;"></path>
                <path
                    d="M361.2537,204.86487c-1.06002,0 -1.79743,0.73741 -1.79743,1.79743v5.06968c0,0.13826 0.04609,0.18435 0.18435,0.18435h28.0676c1.1522,0 1.65917,0.18435 1.88961,0.50697c0.23044,0.23044 0.46088,0.69132 0.46088,1.79743v5.43838c0,1.84352 -0.50697,2.3044 -2.35049,2.3044h-16.68386c-0.18435,0 -0.27653,0.18435 -0.13826,0.32262c2.71919,2.58093 10.0011,9.63239 15.30122,14.79425c0,0.04609 0.04609,0.04609 0.13826,0.04609h10.46198c0.13826,0 0.27653,-0.18435 0.13826,-0.32262c-1.61308,-1.61308 -5.99144,-5.761 -7.92714,-7.60452c-0.13826,-0.13826 -0.04609,-0.32262 0.13826,-0.32262c5.761,-0.59914 8.61846,-2.71919 8.61846,-8.71063v-6.40623c0,-5.761 -3.13398,-8.89499 -8.89499,-8.89499z"
                    data-paper-data="{&quot;glyphName&quot;:&quot;r&quot;,&quot;glyphIndex&quot;:6,&quot;word&quot;:2}"
                    style="animation-play-state: running;"></path>
                <path
                    d="M402.779,204.86487c-1.06002,0 -1.79743,0.73741 -1.79743,1.79743v3.4566c0,0.41479 0.09218,0.92176 0.50697,1.33655c0.41479,0.3687 0.92176,0.46088 1.29046,0.46088h14.42555v23.41271c0,0.3687 0.09218,0.87567 0.50697,1.29046c0.3687,0.41479 0.87567,0.50697 1.29046,0.50697h3.96357c0.41479,0 0.92176,-0.09218 1.29046,-0.50697c0.41479,-0.41479 0.50697,-0.92176 0.50697,-1.29046v-23.41271h14.37946c1.06002,0 1.84352,-0.69132 1.84352,-1.79743v-3.4566c0,-0.41479 -0.18435,-0.87567 -0.50697,-1.29046c-0.41479,-0.3687 -0.92176,-0.50697 -1.33655,-0.50697z"
                    data-paper-data="{&quot;glyphName&quot;:&quot;t&quot;,&quot;glyphIndex&quot;:7,&quot;word&quot;:2}"
                    style="animation-play-state: running;"></path>
                <path
                    d="M444.21211,228.41584c0,5.94535 3.31834,8.89499 9.07934,8.89499h22.6753c5.761,0 9.03325,-3.13398 9.03325,-8.89499v-14.79425c0,-5.94535 -3.27225,-8.89499 -9.03325,-8.89499h-22.6753c-5.94535,0 -9.07934,2.94963 -9.07934,8.89499zM451.86272,214.03638c0,-0.87567 0.18435,-1.47482 0.50697,-1.70526c0.32262,-0.32262 0.92176,-0.55306 2.07396,-0.55306h20.3709c1.79743,0 2.53484,0.41479 2.53484,2.25831v13.91858c0,1.06002 -0.23044,1.42873 -0.46088,1.75134c-0.32262,0.32262 -0.92176,0.55306 -2.07396,0.55306h-20.3709c-1.1522,0 -1.75134,-0.27653 -2.07396,-0.59914c-0.32262,-0.23044 -0.50697,-0.82958 -0.50697,-1.70526z"
                    data-paper-data="{&quot;glyphName&quot;:&quot;o&quot;,&quot;glyphIndex&quot;:8,&quot;lastGlyphOfWord&quot;:true,&quot;word&quot;:2}"
                    style="animation-play-state: running;"></path>
            </g>
        </g>
    </g>
</svg>